<?xml version="1.0" encoding="UTF-8" standalone="no"?>
<svg
   width="70"
   height="70"
   viewBox="0 0 70 70"
   fill="none"
   version="1.1"
   id="svg60"
   sodipodi:docname="typhon.svg"
   inkscape:version="1.1.1 (3bf5ae0d25, 2021-09-20)"
   xmlns:inkscape="http://www.inkscape.org/namespaces/inkscape"
   xmlns:sodipodi="http://sodipodi.sourceforge.net/DTD/sodipodi-0.dtd"
   xmlns="http://www.w3.org/2000/svg"
   xmlns:svg="http://www.w3.org/2000/svg">
  <sodipodi:namedview
     id="namedview62"
     pagecolor="#ffffff"
     bordercolor="#666666"
     borderopacity="1.0"
     inkscape:pageshadow="2"
     inkscape:pageopacity="0.0"
     inkscape:pagecheckerboard="0"
     showgrid="false"
     inkscape:zoom="5.7773838"
     inkscape:cx="14.366364"
     inkscape:cy="62.744663"
     inkscape:window-width="1920"
     inkscape:window-height="991"
     inkscape:window-x="-9"
     inkscape:window-y="-9"
     inkscape:window-maximized="1"
     inkscape:current-layer="svg60" />
  <g
     clip-path="url(#clip0_247_218150)"
     id="g14"
     transform="matrix(1.5102187,0,0,1.5728348,2.0456713,0.4505996)">
    <path
       d="m 14.2488,30.9702 c -0.0253,0.0035 -0.049,0.0193 -0.0697,0.052 -0.0826,0.1316 0.1226,1.3686 0.7118,2.038 0.5892,0.6717 1.8924,0.436 2.7988,0.5781 0.9063,0.142 1.256,0.8259 1.8659,1.7057 0.9392,1.5265 2.2651,1.5635 2.2651,1.5635 0,0 1.3259,-0.037 2.2651,-1.5635 0.6099,-0.8798 0.9599,-1.5637 1.8661,-1.7057 0.9063,-0.1421 2.21,0.0936 2.7992,-0.5781 0.5892,-0.6694 0.7942,-1.9064 0.7116,-2.038 -0.0825,-0.1315 -0.2128,0.0098 -0.3106,0.1214 -0.4226,0.4831 -0.6369,0.8063 -1.6021,1.0681 -0.9651,0.2619 -1.9205,0.0129 -1.9205,0.0129 -0.4171,0.3684 -0.7587,0.6251 -1.5494,0.6519 l -2.2594,0.0072 -2.2591,-0.0072 c -0.7909,-0.0268 -1.1322,-0.2835 -1.5493,-0.6519 0,0 -0.9554,0.249 -1.9205,-0.0129 -0.965,-0.2618 -1.1794,-0.585 -1.6021,-1.0681 -0.0732,-0.0837 -0.1647,-0.1839 -0.2409,-0.1734 z"
       fill="url(#paint0_linear_247_218150)"
       id="path2"
       style="fill:url(#paint0_linear_247_218150)" />
    <path
       d="M 5.02897,7.03013 C 3.25769,6.78036 -5.44562,15.9777 12.0006,22.1306 c 1.8034,0.6369 5.8679,1.746 7.2243,4.0761 -0.953,0.2137 -1.5764,0.3467 -2.6576,-0.0395 C 14.99,25.6037 15.3723,23.9326 15.405,23.92 L 7.06757,20.7465 c 0,0 1.43684,1.6934 3.45303,3.1735 2.0163,1.4803 5.6182,3.0015 7.0754,3.8607 1.4573,0.8569 1.865,2.2936 1.865,2.2936 0,0 -0.4378,-0.0832 -1.4064,-0.11 -0.9687,-0.0268 -1.8763,-0.6583 -2.0878,-1.2303 -0.2114,-0.5719 -0.0772,-1.3862 -0.0852,-1.4021 l -2.0687,-0.9237 c 0,0 2e-4,1.4369 -0.4191,1.9089 -0.4193,0.4697 -2.398,-0.844 -2.9133,-1.1187 -0.1538,-0.0819 -0.3087,-0.0588 -0.281,0.1263 0.0255,0.1676 0.9972,1.6017 1.877,2.3854 0.8775,0.7813 2.0074,0.5078 2.2746,0.4975 0.4351,-0.0168 1.3508,0.0024 2.2484,0.5428 1.0355,0.6236 1.1702,0.9952 1.537,1.3337 0.2618,0.2414 0.6878,0.6287 1.4173,0.6287 l 2.2669,0.0194 2.2669,-0.0194 c 0.7295,0 1.1559,-0.3873 1.4176,-0.6287 0.3666,-0.3385 0.5016,-0.7101 1.5371,-1.3337 0.8975,-0.5404 1.8132,-0.5596 2.2484,-0.5428 0.2672,0.0103 1.3971,0.2838 2.2745,-0.4975 0.8798,-0.7837 1.8512,-2.2178 1.8765,-2.3854 0.0279,-0.1851 -0.1266,-0.2082 -0.2805,-0.1263 -0.5152,0.2747 -2.4939,1.5884 -2.9132,1.1187 -0.4193,-0.472 -0.4193,-1.9089 -0.4193,-1.9089 l -2.0686,0.9237 c -0.0079,0.0159 0.1263,0.8302 -0.0852,1.4021 -0.2115,0.572 -1.1196,1.2035 -2.0881,1.2303 -0.9686,0.0268 -1.406,0.11 -1.406,0.11 0,0 0.4076,-1.4367 1.8648,-2.2936 1.4574,-0.8592 5.0591,-2.3804 7.0755,-3.8607 2.0163,-1.4801 3.4527,-3.1735 3.4527,-3.1735 L 28.2367,23.92 c 0.0328,0.0126 0.4151,1.6837 -1.1623,2.2472 -1.0811,0.3862 -1.7045,0.2532 -2.6575,0.0395 1.3564,-2.3301 5.4209,-3.4392 7.2241,-4.0761 18.0091,-6.3513 8.1543,-15.94682 6.823,-15.0463 -0.3918,0.26585 -0.1145,0.67109 -0.1145,0.67109 0,0 1.3518,2.25471 0.3117,4.31221 -1.0402,2.0576 -5.3221,3.2416 -6.8251,3.0789 -1.4962,-0.1603 -2.1305,-0.6334 -2.1351,-0.6449 -0.5269,-0.669 -1.1306,-1.8809 -2.134,-1.1891 -1.1801,0.8159 -2.5251,0.5576 -3.5539,-0.5559 -1.031,-1.1159 -2.1924,-1.5498 -2.1924,-1.5498 0,0 -1.1614,0.4339 -2.1926,1.5498 -1.0286,1.1135 -2.3738,1.3718 -3.5537,0.5559 -1.0035,-0.6918 -1.6065,0.5201 -2.1336,1.1891 -0.0046,0.0115 -0.6389,0.4844 -2.1351,0.6449 -1.503,0.1627 -5.78488,-1.0213 -6.82517,-3.0789 -1.0401,-2.0575 0.3117,-4.31203 0.3117,-4.31203 0,0 0.27694,-0.40542 -0.11481,-0.67127 C 5.13275,7.05509 5.08195,7.03656 5.02897,7.03013 Z m 9.06123,9.91107 c 0,0 1.1802,-0.0209 3.1965,0.5794 2.014,0.6007 4.5338,3.0059 4.5338,3.0059 0,0 2.5204,-2.4052 4.5344,-3.0057 2.0163,-0.6003 3.1963,-0.5796 3.1963,-0.5796 0,0 -2.6809,0.5796 -4.9102,1.9726 -2.2294,1.3931 -2.8205,3.1094 -2.8205,3.1094 0,0 -0.591,-1.7163 -2.8204,-3.1094 C 16.7707,17.5208 14.09,16.9412 14.09,16.9412 Z"
       fill="url(#paint1_linear_247_218150)"
       id="path4"
       style="fill:url(#paint1_linear_247_218150)" />
    <path
       d="m 4.70193,7.06763 c -2.27543,0.6624 -9.24074,9.22987 7.29887,15.06297 1.8032,0.6369 5.8679,1.7461 7.2241,4.0761 -0.9529,0.2139 -1.5762,0.3466 -2.6574,-0.0396 C 14.9902,25.6036 15.3725,23.9326 15.405,23.92 L 7.06776,20.7464 c 0,0 1.43666,1.6935 3.45294,3.1736 2.0164,1.4803 5.6183,3.0014 7.0755,3.8607 1.4571,0.8569 1.865,2.2936 1.865,2.2936 0,0 -0.4378,-0.0832 -1.4066,-0.11 -0.9685,-0.0268 -1.8761,-0.6584 -2.0876,-1.2304 -0.2116,-0.572 -0.0772,-1.3863 -0.0852,-1.4024 l -2.0687,-0.9233 c 0,0 0,1.4367 -0.4191,1.9088 -0.4195,0.4698 -2.398,-0.8439 -2.9133,-1.1186 -0.1538,-0.0819 -0.3087,-0.0588 -0.281,0.1262 0.0253,0.1677 0.997,1.6018 1.877,2.3855 0.8775,0.7812 2.0072,0.5078 2.2744,0.4975 0.4352,-0.017 1.3506,0.0022 2.248,0.5427 1.0357,0.6236 1.1708,0.9952 1.5376,1.3337 0.2616,0.2415 0.6878,0.6288 1.4173,0.6288 l 2.2503,0.0194 h 0.0166 l 2.2501,-0.0194 c 0.7295,0 1.1556,-0.3873 1.4172,-0.6288 0.3668,-0.3385 0.502,-0.7101 1.5376,-1.3337 0.8974,-0.5405 1.8129,-0.5597 2.2481,-0.5427 0.2671,0.0103 1.3973,0.2837 2.2749,-0.4975 0.8798,-0.7837 1.8511,-2.2178 1.8764,-2.3855 0.028,-0.185 -0.127,-0.2081 -0.2808,-0.1262 -0.5152,0.2747 -2.4939,1.5884 -2.9132,1.1186 -0.4193,-0.4721 -0.4193,-1.9088 -0.4193,-1.9088 l -2.0686,0.9233 c -0.0081,0.0161 0.1263,0.8304 -0.0852,1.4024 -0.2115,0.572 -1.1192,1.2036 -2.0878,1.2304 -0.9685,0.0268 -1.4065,0.11 -1.4065,0.11 0,0 0.4082,-1.4367 1.8654,-2.2936 1.4573,-0.8593 5.0587,-2.3804 7.0751,-3.8607 2.0162,-1.4799 3.4529,-3.1736 3.4529,-3.1736 L 28.2199,23.92 c 0.0328,0.0126 0.4149,1.6836 -1.1623,2.2471 -1.0813,0.3862 -1.7047,0.2535 -2.6575,0.0396 1.3562,-2.33 5.4208,-3.4392 7.2241,-4.0761 16.5396,-5.8331 9.5746,-14.40057 7.2992,-15.06297 0,0 2.3074,3.00177 1.9549,5.93947 -0.3419,2.9376 -6.1532,5.8969 -11.0244,7.0936 -1.3737,0.3377 -7.8139,3.112 -8.0389,6.2437 C 21.59,23.2127 15.1447,20.4384 13.7711,20.1005 8.90005,18.904 3.08909,15.9447 2.74708,13.0071 2.39452,10.0694 4.70193,7.06763 4.70193,7.06763 Z"
       fill="url(#paint2_linear_247_218150)"
       id="path6"
       style="fill:url(#paint2_linear_247_218150)" />
    <path
       d="m 19.5606,32.8765 c -0.1179,1.9916 2.2601,3.1977 2.2601,3.1977 0,0 2.3784,-1.2061 2.2603,-3.1977 l -2.2603,0.0072 z"
       fill="url(#paint3_linear_247_218150)"
       id="path8"
       style="fill:url(#paint3_linear_247_218150)" />
    <path
       fill-rule="evenodd"
       clip-rule="evenodd"
       d="M 18.7718,29.3862 C 18.6596,29.117 18.051,28.0534 16.6352,27.639 c -0.1553,-0.0455 -0.406,-0.0747 -0.4684,0.2832 -0.055,0.3146 0.0499,0.7265 0.2427,0.9761 0.3527,0.4563 0.7548,0.6619 1.2488,0.7561 0.211,0.0402 0.5199,0.1052 0.7813,0.0871 0.0999,-0.0055 0.1975,-0.032 0.2864,-0.078 0.1192,-0.0606 0.0998,-0.1479 0.0458,-0.2773 z m -0.2864,-3.6263 c -0.3758,-0.4309 -0.8994,-1.1453 -2.2763,-1.662 -0.1516,-0.0571 -0.406,-0.0747 -0.4685,0.2832 -0.0549,0.3147 0.0499,0.7266 0.2429,0.9761 0.3526,0.4563 0.754,0.6663 1.2487,0.7562 0.2218,0.0401 0.3993,0.0874 0.7813,0.087 0.1066,-10e-5 0.215,-0.0192 0.3139,-0.0369 0.3784,-0.0679 0.2854,-0.2576 0.158,-0.4036 z m 6.3847,3.6263 c 0.1122,-0.2692 0.7208,-1.3328 2.1366,-1.7472 0.1554,-0.0455 0.4059,-0.0747 0.4684,0.2832 0.0549,0.3146 -0.0497,0.7265 -0.2427,0.9761 -0.3526,0.4563 -0.7549,0.6619 -1.2487,0.7561 -0.2111,0.0402 -0.52,0.1052 -0.7812,0.0871 -0.1,-0.0054 -0.1977,-0.032 -0.2866,-0.078 -0.1192,-0.0606 -0.0996,-0.1479 -0.0458,-0.2773 z m 0.2861,-3.6263 c 0.3761,-0.4309 0.8996,-1.1453 2.2764,-1.662 0.1518,-0.0571 0.4062,-0.0747 0.4687,0.2832 0.0549,0.3147 -0.05,0.7266 -0.243,0.9761 -0.3525,0.4563 -0.7539,0.6663 -1.2486,0.7562 -0.2219,0.0401 -0.3995,0.0874 -0.7813,0.087 -0.1067,-10e-5 -0.215,-0.0192 -0.3141,-0.0369 -0.3782,-0.0679 -0.2852,-0.2576 -0.1581,-0.4036 z"
       fill="#6e93e5"
       id="path10" />
    <path
       d="m 4.66406,11.1543 c 0,0 -0.16713,4.6122 6.65394,5.1669 0.836,0.0711 1.7438,-0.0261 2.5458,-0.8547 1.2103,-1.2509 1.0972,-1.5718 1.906,-1.2603 0.8111,0.3117 1.8744,0.694 3.1003,-0.3943 1.2256,-1.086 1.8898,-1.337 2.9506,-1.337 1.0608,0 1.7255,0.251 2.9512,1.3371 1.2259,1.0882 2.2891,0.7059 3.1003,0.3942 0.8087,-0.3115 0.6957,0.0094 1.9061,1.2603 0.8019,0.8286 1.7095,0.9258 2.5457,0.8547 6.8209,-0.5547 6.6536,-5.1669 6.6536,-5.1669 -0.0636,0.3175 -0.1699,0.625 -0.316,0.914 -1.0401,2.0575 -5.3179,2.6698 -6.8211,2.5091 -1.496,-0.1599 -1.481,-0.726 -1.9567,-1.5215 -0.4973,-0.8316 -1.3128,-0.7837 -2.3164,-0.0917 -1.1799,0.8157 -2.5297,0.4722 -3.5585,-0.6415 -1.031,-1.1157 -2.1882,-1.1159 -2.1882,-1.1159 0,0 -1.1567,2e-4 -2.1878,1.1161 -1.0286,1.1135 -2.3784,1.4568 -3.5584,0.6413 -1.0037,-0.692 -1.8192,-0.7399 -2.3165,0.0917 -0.4757,0.7955 -0.4609,1.3616 -1.9569,1.5215 -1.5032,0.1609 -5.78062,-0.4516 -6.8209,-2.5091 -0.14618,-0.289 -0.25252,-0.5965 -0.31614,-0.914 z"
       fill="url(#paint4_linear_247_218150)"
       id="path12"
       style="fill:url(#paint4_linear_247_218150)" />
  </g>
  <defs
     id="defs58">
    <linearGradient
       id="paint0_linear_247_218150"
       x1="13.9009"
       y1="34.023399"
       x2="29.777901"
       y2="34.023399"
       gradientUnits="userSpaceOnUse">
      <stop
         stop-color="#3B60B2"
         id="stop16" />
      <stop
         offset="0.497"
         stop-color="#3B60B2"
         id="stop18" />
      <stop
         offset="0.499"
         stop-color="#4A78DF"
         id="stop20" />
      <stop
         offset="1"
         stop-color="#4A78DF"
         id="stop22" />
    </linearGradient>
    <linearGradient
       id="paint1_linear_247_218150"
       x1="38.645302"
       y1="16.101299"
       x2="4.9686999"
       y2="16.101299"
       gradientUnits="userSpaceOnUse">
      <stop
         stop-color="#253C70"
         id="stop25" />
      <stop
         offset="0.499"
         stop-color="#34549C"
         id="stop27" />
      <stop
         offset="0.5"
         stop-color="#3B60B2"
         id="stop29" />
      <stop
         offset="1"
         stop-color="#2C4886"
         id="stop31" />
    </linearGradient>
    <linearGradient
       id="paint2_linear_247_218150"
       x1="35.367199"
       y1="23.617201"
       x2="8.8706598"
       y2="23.617201"
       gradientUnits="userSpaceOnUse">
      <stop
         stop-color="#34549C"
         id="stop34" />
      <stop
         offset="0.512"
         stop-color="#4A78DF"
         id="stop36" />
      <stop
         offset="1"
         stop-color="#3B60B2"
         id="stop38" />
    </linearGradient>
    <linearGradient
       id="paint3_linear_247_218150"
       x1="19.214399"
       y1="33.7542"
       x2="24.494699"
       y2="33.781601"
       gradientUnits="userSpaceOnUse">
      <stop
         stop-color="#436CC9"
         id="stop41" />
      <stop
         offset="0.494"
         stop-color="#4A78DF"
         id="stop43" />
      <stop
         offset="1"
         stop-color="#4A78DF"
         id="stop45" />
    </linearGradient>
    <linearGradient
       id="paint4_linear_247_218150"
       x1="5.7062001"
       y1="11.2068"
       x2="37.798599"
       y2="11.2068"
       gradientUnits="userSpaceOnUse">
      <stop
         stop-color="#1E3059"
         id="stop48" />
      <stop
         offset="0.502"
         stop-color="#253C70"
         id="stop50" />
      <stop
         offset="1"
         stop-color="#162443"
         id="stop52" />
    </linearGradient>
    <clipPath
       id="clip0_247_218150">
      <rect
         width="41.226898"
         height="29.9496"
         fill="#ffffff"
         transform="translate(1.29407,7.02515)"
         id="rect55"
         x="0"
         y="0" />
    </clipPath>
  </defs>
</svg>
