<?xml version="1.0" encoding="UTF-8"?>
<!-- Created with Inkscape (http://www.inkscape.org/) -->
<svg width="100%" height="100%" preserveAspectRatio="xMidYMax slice" version="1.1" viewBox="0 0 1016 571.5" xmlns="http://www.w3.org/2000/svg" xmlns:xlink="http://www.w3.org/1999/xlink">
 <defs>
  <linearGradient id="c">
   <stop stop-color="#fff" offset="0"/>
   <stop stop-color="#fff" stop-opacity="0" offset="1"/>
  </linearGradient>
  <filter id="a" x="-.024964" y="-.061011" width="1.0594" height="1.1266" color-interpolation-filters="sRGB">
   <feFlood flood-color="rgb(0,0,0)" flood-opacity=".10196" result="flood"/>
   <feComposite in="flood" in2="SourceGraphic" operator="in" result="composite1"/>
   <feGaussianBlur in="composite1" result="blur" stdDeviation="3"/>
   <feOffset dx="10" dy="2" result="offset"/>
   <feComposite in="SourceGraphic" in2="offset" result="fbSourceGraphic"/>
   <feColorMatrix in="fbSourceGraphic" result="fbSourceGraphicAlpha" values="0 0 0 -1 0 0 0 0 -1 0 0 0 0 -1 0 0 0 0 1 0"/>
   <feMorphology in="fbSourceGraphic" radius="4" result="result0"/>
   <feGaussianBlur in="result0" result="result91" stdDeviation="8"/>
   <feComposite in="fbSourceGraphic" in2="result91" operator="in"/>
  </filter>
  <filter id="e" x="-.168" y="-.168" width="1.336" height="1.336" color-interpolation-filters="sRGB">
   <feGaussianBlur stdDeviation="3.64"/>
  </filter>
  <filter id="d" x="-.24" y="-.24" width="1.48" height="1.48" color-interpolation-filters="sRGB">
   <feGaussianBlur stdDeviation="5.2"/>
  </filter>
  <linearGradient id="b" x1="286.47" x2="320.03" y1="390.08" y2="390.08" gradientUnits="userSpaceOnUse" xlink:href="#c"/>
  <filter id="f" x="-.010403" y="-.018009" width="1.0208" height="1.036" color-interpolation-filters="sRGB">
   <feGaussianBlur stdDeviation="1"/>
  </filter>
 </defs>
 <rect x="5e-7" y="5e-7" width="1016" height="571.5" fill="#68b4e6" stroke-width="0"/>
 <g transform="matrix(16.618 0 0 16.618 -5817.1 -5461.6)">
  <circle transform="matrix(.33041 0 0 .33041 227.97 346.12)" cx="410" cy="2.5" r="26" color="#000000" fill="#fff" filter="url(#e)" stroke-width="3.0265"/>
  <g transform="matrix(.11681 0 0 .11681 315.21 346.68)" fill="#fff" fill-opacity=".75" filter="url(#f)" stroke-width="0">
   <path d="m426.03-8.3363s92.985-74.246 96.167-77.075c-2.4749 3.8891-94.752 79.55-94.752 79.55z"/>
   <path d="m394.13-7.2549s-98.983-66.038-102.64-68.211c4.4571 1.1766 104.57 66.111 104.57 66.111z"/>
   <path d="m402.55-14.107s-44.747-89.946-46.526-93.08c2.8373 2.7658 48.947 92.412 48.947 92.412z"/>
   <path d="m410.28-15.906s-2.2547-118.97-2.56-123.22c1.5772 4.3316 5.3843 123.6 5.3843 123.6z"/>
   <path d="m416.43-10.591s38.958-99.597 40.109-103.21c0.17074 4.0331-37.242 104.3-37.242 104.3z" stroke-width="0"/>
  </g>
  <path transform="matrix(.26458 0 0 .26458 289.92 233.68)" d="m286.47 407.08s26.686-34.787 32.186-38.037l1.3713 0.82842c-0.5 4-28.065 41.244-28.065 41.244z" fill="url(#b)" opacity=".58204" stroke-width="3.7795"/>
  <circle transform="matrix(.40659 0 0 .40659 196.74 345.93)" cx="410" cy="2.5" r="26" color="#000000" fill="#fff" filter="url(#d)" opacity=".35" stroke-width="2.4595"/>
  <path transform="matrix(-.26458 0 0 .26458 436 233.68)" d="m286.47 407.08s26.686-34.787 32.186-38.037l1.3713 0.82842c-0.5 4-28.065 41.244-28.065 41.244z" fill="url(#b)" opacity=".58204" stroke-width="3.7795"/>
 </g>
 <path d="m919.04 229.24c-28.26 0.021-52.984 19.016-60.286 46.317-9.754-9.729-22.967-15.193-36.744-15.194-27.771 0.018-50.636 21.838-51.95 49.578-0.972-0.092-1.948-0.139-2.924-0.139-10.849 8e-3 -20.916 5.646-26.59 14.893-5.932-7.178-14.757-11.335-24.069-11.335-13.734 2e-3 -25.855 8.977-29.863 22.114-9.489-5.477-20.252-8.361-31.209-8.363-29.7 0.019-55.278 20.952-61.17 50.061-3.935-1.715-8.182-2.601-12.475-2.601-13.091 9e-3 -24.787 8.18-29.296 20.47-7.711-9.052-19.004-14.267-30.895-14.269-7.099 0-14.074 1.864-20.229 5.403-3.555-13.793-15.992-23.432-30.236-23.432-4.714 0-9.368 1.069-13.611 3.125 0.781-3.596 1.178-7.264 1.185-10.944 0-28.743-23.3-52.043-52.043-52.043-8.675 0.012-17.211 2.192-24.829 6.343-2.03-15.551-15.279-27.184-30.962-27.184-4.755 2e-3 -9.447 1.09-13.717 3.181-7.213-17.578-24.33-29.057-43.33-29.057-23.622 0.015-43.536 17.617-46.451 41.059-4.666-2.618-9.926-3.993-15.276-3.994-13.698 0-25.797 8.927-29.837 22.016-7.273-4.358-15.593-6.66-24.072-6.66-6.24 0.01-12.416 1.267-18.164 3.697-4.462-24.786-26.033-42.82-51.217-42.821-6.963 0.011-13.853 1.42-20.261 4.142-5.2925-10.57-16.1-17.245-27.92-17.245-5.2384 7e-3 -10.391 1.331-14.984 3.851-8.8476-11.769-22.714-18.692-37.438-18.693-10.97 0-20.927 3.928-28.909 10.245v410.19h1057.5v-396.75c-6.05-2.453-12.62-3.867-19.55-3.867-14.12 0.01-27.626 5.758-37.426 15.924-6.686-28.146-31.829-48.016-60.759-48.017z" fill="#7fc5e3" filter="url(#a)">
 <animateTransform attributeType="xml" attributeName="transform" type="translate" dur="20s" values="0,0; 0,-10; 0,0; 0,10;0,0" repeatCount="indefinite"/>
 </path>
 <path d="m96.994 278.59c28.26 0.021 52.985 19.016 60.286 46.317 9.754-9.729 22.968-15.193 36.744-15.194 27.772 0.018 50.636 21.838 51.951 49.578 0.972-0.092 1.947-0.139 2.924-0.139 10.848 8e-3 20.915 5.646 26.589 14.893 5.932-7.178 14.758-11.335 24.069-11.335 13.735 2e-3 25.855 8.977 29.863 22.114 9.489-5.477 20.253-8.361 31.209-8.363 29.7 0.019 55.278 20.952 61.17 50.061 3.936-1.715 8.183-2.601 12.476-2.601 13.09 9e-3 24.786 8.18 29.295 20.47 7.712-9.052 19.004-14.267 30.896-14.269 7.099 0 14.074 1.864 20.228 5.403 3.555-13.793 15.993-23.432 30.236-23.432 4.715 0 9.368 1.069 13.611 3.125-0.781-3.596-1.178-7.264-1.184-10.944 0-28.743 23.3-52.043 52.042-52.043 8.676 0.012 17.211 2.192 24.829 6.343 2.03-15.551 15.28-27.184 30.963-27.184 4.755 2e-3 9.446 1.09 13.717 3.181 7.212-17.578 24.33-29.057 43.33-29.057 23.622 0.015 43.536 17.617 46.45 41.059 4.666-2.618 9.926-3.993 15.277-3.994 13.697 0 25.796 8.927 29.836 22.016 7.273-4.358 15.593-6.66 24.073-6.66 6.24 0.01 12.415 1.267 18.163 3.697 4.463-24.786 26.033-42.82 51.217-42.821 6.963 0.011 13.853 1.42 20.262 4.142 5.292-10.57 16.099-17.245 27.92-17.245 5.239 7e-3 10.391 1.331 14.984 3.851 8.847-11.769 22.714-18.692 37.44-18.693 10.97 0 20.92 3.928 28.91 10.245v410.19h-1057.5v-396.75c6.0416-2.453 12.62-3.867 19.542-3.867 14.12 0.01 27.63 5.758 37.43 15.924 6.6864-28.146 31.829-48.016 60.759-48.017z" fill="#b7e2f4" filter="url(#a)">
  <animateTransform attributeType="xml" attributeName="transform" type="translate" dur="20s" values="0,0; 0,20; 0,0; 0,-20;0,0" repeatCount="indefinite"/>
 </path>
 <path d="m919.04 337.58c-28.26 0.021-52.984 19.016-60.286 46.317-9.754-9.729-22.967-15.193-36.744-15.194-27.771 0.018-50.636 21.838-51.95 49.578-0.972-0.092-1.948-0.139-2.924-0.14-10.849 9e-3 -20.916 5.647-26.59 14.894-5.932-7.178-14.757-11.335-24.069-11.335-13.734 2e-3 -25.855 8.977-29.863 22.114-9.489-5.477-20.252-8.361-31.209-8.363-29.7 0.019-55.278 20.952-61.17 50.061-3.935-1.715-8.182-2.601-12.475-2.601-13.091 9e-3 -24.787 8.18-29.296 20.47-7.711-9.052-19.004-14.267-30.895-14.269-7.099 0-14.074 1.864-20.229 5.403-3.555-13.793-15.992-23.432-30.236-23.432-4.714 0-9.368 1.069-13.611 3.125 0.781-3.596 1.178-7.264 1.185-10.944 0-28.743-23.3-52.043-52.043-52.043-8.675 0.012-17.211 2.192-24.829 6.343-2.03-15.551-15.279-27.184-30.962-27.184-4.755 2e-3 -9.447 1.09-13.717 3.181-7.213-17.578-24.33-29.057-43.33-29.057-23.622 0.014-43.536 17.617-46.451 41.059-4.666-2.618-9.926-3.993-15.276-3.994-13.698 0-25.797 8.927-29.837 22.016-7.273-4.358-15.593-6.66-24.072-6.66-6.24 0.01-12.416 1.267-18.164 3.697-4.462-24.786-26.033-42.82-51.217-42.821-6.963 0.011-13.853 1.42-20.261 4.142-5.2925-10.57-16.1-17.245-27.92-17.245-5.2384 7e-3 -10.391 1.331-14.984 3.851-8.8476-11.769-22.714-18.692-37.438-18.693-10.97 0-20.927 3.928-28.909 10.245v410.19h1057.5v-396.75c-6.05-2.453-12.62-3.867-19.55-3.867-14.12 0.01-27.626 5.758-37.426 15.924-6.686-28.147-31.829-48.016-60.759-48.017z" fill="#daf4ff" filter="url(#a)">
  <animateTransform attributeType="xml" attributeName="transform" type="translate" dur="20s" values="0,0; 0,-25; 0,0; 0,25;0,0" repeatCount="indefinite"/>
 </path>
 <g>
  <animateTransform attributeName="transform" type="translate" from="0 175" to="0 0" begin="0s" dur="0.8s" repeatCount="1"/>
  <path d="m444.26 159.95c2.7755 4.9306 1.0448 6.1064 4.3754 9.0451-7.3469 1.2408-4.7347 7.5429-4.7347 7.5429-4.2484-0.36943-4.2744-8.0321-11.201-7.478-7.4808 0.64649-9.0119 5.7463-9.0119 5.7463-1.4367 5.4857 11.559 9.1375 5.094 12.278-6.9267 1.7548-6.5299-6.791-6.5299-6.791-0.64649-10.436-8.4895-10.057-8.4895-10.057-6.2152 2.5832-0.33335 9.7854-3.104 11.171-5.449 1.8471-4.2195-5.1705-3.1112-8.5877-1.0159-5.7261-6.4938-2.85-13.605-8.8532 1.2082 6.4326-2.1323 8.1978-0.65371 10.71 2.3005 3.9354 6.5638 0.48951 9.5026 2.6119-5.7514 11.698 15.514 13.966 11.722-0.4892 2.2627-2.3089 3.2123-0.2179 3.2123-0.2179 2.0318 6.742-0.44302 8.1418 0.80378 9.8503 3.7404 5.4778 8.947 5.2239 8.947 5.2239 5.9428-0.32653 8.5227-4.5052 8.5227-4.5052s2.1841 2.6833 5.3841 3.3364c3.853 0.19593 5.7501-5.4919 10.713-5.5572 1.9592 0.19592 4.8331 3.5269 9.1432 3.2656 7.7714-1.1755 6.8574-7.7723 6.8574-7.7723s0.65212-0.71833 1.9582-0.26119c-0.0653-3.5918-3.2656-2.7418-3.2656-2.7418-3.6571 1.6326 0.94777 5.8443-2.84 6.3668-3.0694 0.1306-6.2706-4.48-11.718-4.7376-5.818-5.0497 3.6524-7.5761 3.6524-7.5761 0.34634 1.4084 2.0001 4.3739 3.9857 2.827 5.3714-4.0489 7.9657-1.1905 7.9657-1.1905-0.88162-5.2571-6.5313-4.8328-6.5313-4.8328-1.0449-0.31021 6.5467 0.47286 4.6366-6.172-2.9224 5.3387-6.8574 1.7317-6.8574 1.7317-2.4318 0.55268-2.7058 1.8508-2.6307 2.6336-1.3595-2.9756-11.613-6.1844-12.192-6.5198zm111.73 0c-0.57916 0.3353-10.83 3.5444-12.191 6.5198 0.075-0.78275-0.20046-2.081-2.6321-2.6336 0 0-3.935 3.6071-6.8574-1.7317-1.9102 6.6448 5.6815 5.8618 4.6366 6.172 0 0-5.6496-0.42428-6.5313 4.8328 0 0 2.5943-2.8584 7.9657 1.1905 1.9857 1.547 3.6394-1.4185 3.9857-2.827 0 0 9.4704 2.5264 3.6524 7.5761-5.447 0.25754-8.6483 4.8682-11.718 4.7376-3.7877-0.52245 0.81715-4.7342-2.84-6.3668 0 0-3.2003-0.84999-3.2657 2.7418 1.3061-0.45714 1.9582 0.26119 1.9582 0.26119s-0.91394 6.5968 6.8574 7.7723c4.3102 0.26122 7.1841-3.0697 9.1432-3.2656 4.9632 0.0653 6.8603 5.7532 10.713 5.5572 3.2-0.65305 5.3841-3.3364 5.3841-3.3364s2.5799 4.1787 8.5227 4.5052c0 0 5.2066 0.25388 8.947-5.2239 1.2468-1.7086-1.2281-3.1084 0.80379-9.8503 0 0 0.94952-2.091 3.2122 0.2179-3.7923 14.455 17.473 12.187 11.722 0.4892 2.9388-2.1224 7.2021 1.3234 9.5026-2.6119 1.4786-2.5126-1.8619-4.2778-0.65371-10.71-7.1114 6.0031-12.589 3.1271-13.605 8.8532 1.1083 3.4172 2.3378 10.435-3.1112 8.5877-2.7706-1.3853 3.1112-8.5875-3.104-11.171 0 0-7.843-0.37952-8.4895 10.057 0 0 0.39685 8.5458-6.5299 6.791-6.4649-3.1401 6.5307-6.7919 5.094-12.278 0 0-1.5311-5.0998-9.0119-5.7463-6.9267-0.55413-6.9527 7.1085-11.201 7.478 0 0 2.6122-6.3021-4.7347-7.5429 3.3306-2.9388 1.5999-4.1145 4.3754-9.0451z" color="#000000" fill="#fdcf09" stroke-width="1.6755" style="-inkscape-stroke:none"/>
  <path d="m442.03 157.69c1.4854 2.5643 2.9897 5.1641 3.5268 8.123 0.6121 1.6613 3.1023 3.1757 0.0663 3.4374-2.8636 0.42463-2.8311 4.9748-3.1877 5.6366-2.3138-1.9829-3.4455-5.47-6.69-6.3365-4.901-1.2152-10.984 1.1391-12.861 6.0464-0.80859 4.0723 3.3774 6.4373 5.8127 8.9239 3.4294 2.8846-4.0331 4.3364-4.7087 1.1227-1.4198-2.9749-0.48675-6.4927-1.9972-9.4737-1.299-3.4113-4.8475-6.029-8.5473-5.7102-3.4656 1.1229-4.0449 5.1891-3.1213 8.2399 1.4499 2.0714-0.97778 4.5796-2.573 2.3378-0.82664-2.4337 0.17801-4.9923 0.62773-7.3654-0.28733-3.3673-3.663-4.7662-6.514-5.4129-3.5208-0.92131-6.5114-3.0486-9.1721-5.4519 0.74321 3.2453 1.0965 6.6947-0.32758 9.8287-1.2992 3.0371 1.7266 6.273 4.8097 5.8906 1.8874-0.12014 5.8503-0.61779 4.0766 2.3334-0.92774 3.4081 1.5641 6.8971 4.9338 7.5674 3.9678 1.2008 8.9235-1.251 9.3929-5.6092 0.66505-1.4584-1.2315-5.9884 1.3579-4.9252 1.224 2.9484 0.53767 6.0887 0.49064 9.11 2.3528 4.927 8.7239 7.9266 13.93 5.7318 2.8031-0.26057 4.2914-5.1654 6.4765-1.8442 1.9861 1.4833 4.8679 2.0671 6.905 0.33335 2.3018-1.6469 4.2236-4.3952 7.3221-4.4403 3.1856 1.3578 6.3485 3.9831 10.058 3.1055 3.8088-0.54141 7.1957-4.0677 6.768-7.9816 1.6681 0.43297 2.4755 0.54174 1.9568-1.4849-0.0604-3.1515-4.8503-4.0478-6.0926-1.2107-0.8791 1.643 1.2512 5.981-2.2512 4.3984-3.127-1.6314-6.0566-3.9773-9.7248-4.2108-3.9115-1.9777 0.83807-6.6753 2.9842-5.335 1.2681 4.1306 5.1813 1.7774 7.5227 0.25398 1.9298-0.94834 3.9975-0.0439 5.0969 1.6292 1.1356 1.6593 0.54444-0.25247 0.41848-1.2021-0.18464-2.4992-1.7283-4.9012-4.1531-5.7376 2.9007-1.1506 2.7755-4.6894 1.824-7.1287-0.2325-2.0195-0.96221 0.63336-1.5094 1.2584-1.1817 2.9112-4.2275 1.9026-6.0522 0.88027-1.9707-0.26579-2.6186 3.613-3.6553 1.0087-3.427-2.4545-7.6098-3.422-11.338-5.247zm116.2 0c-0.62697 0.36302-1.2534 0.7265-1.8803 1.0895-3.7283 1.8251-7.9112 2.7924-11.338 5.247-1.0367 2.6044-1.6846-1.2745-3.6553-1.0087-1.8248 1.0223-4.8705 2.0309-6.0522-0.88027-0.54725-0.62499-1.2783-3.2778-1.5109-1.2584-0.95147 2.4393-1.0753 5.9781 1.8255 7.1287-2.4248 0.83642-3.97 3.2384-4.1546 5.7376-0.12597 0.94961-0.71711 2.8614 0.41849 1.2021 1.0994-1.6731 3.1671-2.5776 5.0969-1.6292 2.3413 1.5234 6.2546 3.8766 7.5227-0.25398 2.1462-1.3403 6.8957 3.3573 2.9842 5.335-3.6682 0.23353-6.5978 2.5794-9.7248 4.2108-3.5024 1.5826-1.3722-2.7555-2.2512-4.3984-1.2421-2.837-6.0311-1.941-6.0912 1.2107-0.51954 2.0266 0.28706 1.9179 1.9554 1.4849-0.42758 3.9137 2.9577 7.4402 6.7665 7.9816 3.7096 0.87757 6.874-1.7478 10.06-3.1055 3.0985 0.0451 5.0203 2.7934 7.3221 4.4403 2.0371 1.7337 4.9189 1.15 6.9051-0.33335 2.1851-3.3211 3.6734 1.5837 6.4765 1.8442 5.2059 2.1948 11.576-0.80502 13.928-5.7318-0.047-3.0214-0.7319-6.1616 0.49209-9.11 2.5894-1.0632 0.69144 3.4667 1.3565 4.9252 0.46941 4.3582 5.4251 6.81 9.3929 5.6092 3.3697-0.67036 5.8615-4.1593 4.9338-7.5674-1.7736-2.9512 2.1893-2.4536 4.0766-2.3334 3.0832 0.38241 6.1102-2.8535 4.8112-5.8906-1.4242-3.134-1.0708-6.5834-0.32757-9.8287-2.6608 2.4032-5.6527 4.5306-9.1736 5.4519-2.8509 0.64681-6.2253 2.0456-6.5125 5.4129 0.44962 2.373 1.4529 4.9317 0.62629 7.3654-1.5952 2.2418-4.0215-0.26634-2.5715-2.3378 0.92353-3.0507 0.34425-7.1169-3.1214-8.2399-3.6998-0.31883-7.2483 2.2988-8.5472 5.7102-1.5104 2.9809-0.57736 6.4988-1.9972 9.4737-0.67563 3.2137-8.1382 1.7618-4.7087-1.1227 2.4352-2.4866 6.6213-4.8516 5.8126-8.9239-1.8764-4.9074-7.9599-7.2616-12.861-6.0464-3.2446 0.86652-4.3762 4.3536-6.69 6.3365-0.35658-0.66179-0.32414-5.212-3.1877-5.6366-3.0358-0.26173-0.54568-1.7761 0.0663-3.4374 0.53713-2.9589 2.0415-5.5587 3.5268-8.123zm-112.54 3.6971c3.3603 1.3666 7.0752 2.4423 9.7205 5.0392 0.1406 1.6042 2.7269 0.96048 1.9092-0.45745 1.7222-2.7842 5.6421 2.0466 7.5414-1.4806 1.3032 0.5471-1.4299 3.1451-3.1127 2.7952-2.6401 0.16222-0.55148 2.7839 1.2454 1.9597 1.6263 0.0313 4.8923 2.983 1.3421 2.1054-2.7042-0.37468-5.4772 4.7116-7.2067 0.97983-0.0522-3.0053-2.6073-1.3041-4.3046-0.5397-2.8915 1.0181-4.614 4.8758-1.9236 7.1273 1.5008 1.848 4.4267 0.87262 6.2282 2.5124 2.4881 1.2199 5.0415 4.1056 8.0523 2.8717 2.7633-1.109-0.97823-7.1859 3.3566-5.8906 1.4445 1.2911-2.3909 1.0061-1.2497 3.042-0.0466 4.8026-6.086 7.2883-9.9802 5.1027-2.5422-1.4531-5.5034-3.6383-8.4347-1.648-2.7165 1.1831-4.2852 4.4582-7.3986 4.7232-2.6294-0.64744-5.1958-2.3162-4.2628-5.2585-0.76906-3.4179-4.4213-4.869-6.1864-7.5862 3.1381-2.1362 6.2767 1.4566 6.9772 4.3826 0.39516 2.437 2.3497 6.259 5.3148 4.5226 1.3574-1.084 1.188-3.0865 2.7996-2.6942 2.2153-2.1608-3.9998-2.2917-3.2527 0.69412-2.4713 2.3263-3.017-2.9829-3.8429-4.5615-1.1909-3.0674-4.6295-5.629-7.9729-4.2989-3.527 1.2954-0.39679 4.8417 1.5628 6.0233 1.8742 1.449 4.3901 4.3647 2.1372 6.5789-3.0811 3.589-8.9864 4.5947-12.749 1.4662-2.8933-1.5831-3.4101-4.4486-2.6004-7.3856-0.20421-2.3924-0.11954-7.1432-3.6726-6.5226-3.8068 0.81724-0.77713 4.3244-1.7591 6.7449-0.86161 4.9936-8.6204 5.8003-10.862 1.4301-1.5263-2.0202 0.66633-4.7097 0.47621-6.3408-2.3833-2.1691-5.727-0.29572-8.4015-1.355-3.0761-2.1686 0.34023-5.8069-0.45745-8.8157-0.42553-2.7049 2.914 1.3214 4.4201 1.3045 2.4037 1.4077 6.2225 1.1272 7.3553 4.1329 0.26467 2.4362-1.2918 4.9599-0.61475 7.5111 0.12528 2.8515 3.968 3.8936 5.8358 2.0217 1.7284-2.7862-1.245-6.1821 0.39972-9.0509 1.8071-2.8557 5.669-0.79409 7.2326 1.2699 2.2638 2.7502 1.8058 6.4294 2.4287 9.6829 0.50834 3.1372 3.729 5.4517 6.8646 4.4518 3.5376-0.55937 3.306-4.983 0.45889-6.4072-1.8777-1.8768-5.7636-4.0814-4.2902-7.2283 2.0786-3.5767 6.9272-5.2418 10.813-4.0593 3.5911 1.4841 4.2324 6.9392 8.553 7.1215 2.0664 0.66432-0.10344-1.5666 0.17606-2.5023-0.73455-3.1006 2.3737-5.1261 5.107-5.195 1.9424 0.078 0.0567-0.93225-0.54547-1.5902-2.0478-1.6691-2.0179-4.5394-3.2267-6.729zm108.88 0c-1.2002 2.1842-1.1783 5.0608-3.2238 6.729-0.60215 0.658-2.4879 1.6682-0.54548 1.5902 2.7333 0.0689 5.8415 2.0945 5.107 5.195 0.27953 0.93571-1.8904 3.1666 0.17605 2.5023 4.3207-0.18226 4.962-5.6374 8.553-7.1215 3.8858-1.1825 8.7341 0.48274 10.813 4.0593 1.4731 3.1469-2.4124 5.3514-4.2902 7.2283-2.8473 1.4241-3.0787 5.848 0.45889 6.4072 3.1356 0.99982 6.3564-1.3147 6.8646-4.4518 0.62242-3.2536 0.16521-6.9327 2.4287-9.6829 1.5636-2.064 5.4255-4.1256 7.2326-1.2699 1.6444 2.8689-1.3286 6.2647 0.39972 9.0509 1.8676 1.8719 5.7118 0.82965 5.8372-2.0217 0.67701-2.5512-0.88092-5.0749-0.61619-7.5111 1.1328-3.0057 4.9516-2.7252 7.3553-4.1329 1.5061 0.0169 4.8456-4.0094 4.4201-1.3045-0.79763 3.0088 2.6186 6.6471-0.45745 8.8157-2.6745 1.0593-6.0196-0.8141-8.403 1.355-0.19011 1.6311 2.004 4.3206 0.47766 6.3408-2.2415 4.3702-10 3.5635-10.862-1.4301-0.98199-2.4204 2.0477-5.9276-1.7591-6.7449-3.5528-0.62048-3.4705 4.1298-3.674 6.5226 0.80991 2.9377 0.29116 5.8019-2.6018 7.3856-3.7631 3.1285-9.6683 2.1229-12.749-1.4662-2.2529-2.2142 0.26444-5.1299 2.1386-6.5789 1.9596-1.1816 5.0896-4.7278 1.5628-6.0233-3.3434-1.3301-6.782 1.2315-7.9729 4.2989-0.82572 1.5786-1.3714 6.8879-3.8429 4.5615 0.74702-2.9858-5.468-2.8549-3.2527-0.69412 1.6114-0.39234 1.4406 1.6104 2.7981 2.6942 2.9649 1.7364 4.9202-2.0853 5.3148-4.5226 0.70056-2.926 3.8391-6.5188 6.9772-4.3826-1.7651 2.7172-5.4159 4.1682-6.185 7.5862 0.933 2.9423-1.6348 4.6111-4.2642 5.2585-3.1134-0.26491-4.6821-3.5401-7.3986-4.7232-2.9313-1.9903-5.8925 0.19485-8.4347 1.648-3.8942 2.1856-9.9321-0.30004-9.9788-5.1027 1.1411-2.0359-2.6941-1.7508-1.2497-3.042 4.3353-1.2953 0.59169 4.7815 3.3551 5.8906 3.0108 1.2339 5.5643-1.6518 8.0523-2.8717 1.8015-1.6398 4.7275-0.66438 6.2283-2.5124 2.6904-2.2515 0.96788-6.1092-1.9236-7.1273-1.6973-0.76444-4.2527-2.4656-4.3046 0.5397-1.7295 3.7318-4.5041-1.3544-7.2081-0.97983-3.5503 0.87753-0.28424-2.0741 1.342-2.1054 1.797 0.82424 3.8855-1.7975 1.2454-1.9597-1.6828 0.34988-4.4147-2.2481-3.1112-2.7952 1.8993 3.5271 5.8178-1.3036 7.54 1.4806-0.81762 1.418 1.7693 2.0616 1.9106 0.45745 2.6453-2.5969 6.3602-3.6726 9.7205-5.0392zm-93.327 6.0536c0.16462-8e-3 0.75671 0.13948 0 0zm77.771 0c-0.75669 0.13948-0.16449-8e-3 0 0z" color="#000000" stroke-width="2.7925" style="-inkscape-stroke:none"/>
  <path d="m222.42 294.55s-1.026 8.8993 10.057 13.517c0 0-4.2268 4.5613 2.0015 5.4721 0 0-3.1346 5.1482 4.2946 6.0031 0 0-1.9172 4.8764 5.6554 5.0478 0 0-3.1329 3.866 5.7795 5.1589 0 0-5.6626 3.8314 5.0045 4.9858 0 0-2.6243 3.6026 3.0247 3.9944l3.3017 3.902 87.877 1.0159 6.4649-42.207s-35.47 1.2367-133.46-6.8906z" color="#000000" fill="#db3f26" style="-inkscape-stroke:none"/>
  <path d="m221.5 293.42-0.11978 1.0087c0.19809 7.194 4.2688 11.688 9.4752 14.054-1.5299 2.5756-0.4713 5.0408 2.1603 5.817-0.90219 3.4229 1.6226 5.5175 4.5153 6.1056-0.10892 3.267 2.6526 4.7852 5.3653 5.1257-0.23323 3.0875 2.8768 4.3416 5.2138 4.892-1.6733 3.6492 3.2032 4.8058 5.5572 5.1676-0.54592 2.7171 1.9545 3.9128 4.0464 4.143l3.3335 3.9395 89.223 1.0039 6.7644-44.326-2.0393 0.0332c-74.137-3.0264-64.79-1.1697-133.49-6.9642zm2.1429 2.2627 3.485 0.27841c2.0889 5.339 5.2106 9.2128 7.2932 11.384-5.2318-1.228-10.846-4.7062-10.778-11.663zm5.2571 0.41993 2.8659 0.22955c1.9465 4.6452 4.4563 8.3094 7.5876 11.868l-2.4215-0.41848c-1.0517-0.95819-5.1719-4.9888-8.0321-11.679zm4.2614 0.342 10.26 0.80522c2.2549 5.7666 5.841 10.325 8.0263 12.768l-10.041-1.4893c-3.0409-3.7909-6.3416-7.4617-8.2457-12.084zm12.011 0.93655 2.85 0.21223c1.866 5.1212 4.466 9.1387 7.8734 13.052l-2.2079-0.3117c-1.1385-1.1801-5.6076-6.0781-8.5155-12.953zm4.1892 0.3117 11.679 0.84707c2.4002 6.0957 6.5086 11.211 8.7911 13.765l-11.95-1.3984c-3.214-4.0784-6.7866-8.1636-8.5198-13.214zm13.431 0.9683 2.8587 0.1977c2.2371 5.4426 5.095 9.6447 8.8157 13.904l-2.508-0.24826c-1.0074-1.0617-6.1118-6.6681-9.1663-13.853zm4.2368 0.29293 12.532 0.81823c2.4594 6.2439 6.713 11.623 8.9499 14.193l-12.109-1.0102c-3.4681-4.3729-7.2809-8.6361-9.3727-14.001zm14.269 0.92934 2.8111 0.1776c2.2698 5.5271 5.0959 9.7832 8.8113 14.204l-2.3854-0.16308c-0.89697-0.97615-6.1382-6.8906-9.237-14.218zm4.1921 0.25691 14.553 0.81102c2.4493 6.2468 6.7323 11.598 9.0033 14.168l-14.281-0.73886c-3.4182-4.4834-7.1665-8.8199-9.276-14.24zm16.275 0.89904 3.1863 0.16448c2.2356 5.4665 4.9856 9.6791 8.6439 14.08l-2.5629-0.0924c-1.0275-1.1041-6.2163-6.9062-9.2674-14.152zm4.5615 0.23513 14.109 0.5931c2.4374 6.2076 6.5594 11.372 8.745 13.845l-13.781-0.36222c-3.3518-4.4314-7.0051-8.7444-9.0725-14.076zm15.823 0.66381 2.6812 0.10527c2.2251 5.3835 5.0288 9.509 8.7666 13.729l-2.4633-0.0223c-3.9563-5.4503-6.7583-8.6813-8.9845-13.812zm4.0319 0.14297s27.896 0.40765 28.557 0.38673l-1.1949 13.249c-0.47384 0.0112-18.149 0.072-18.149 0.072-3.398-4.8026-7.3717-9.1478-9.2125-13.708zm26.955 15.761-0.46467 1.762c-44.807 1.7327-84.146-2.2483-117.69-7.0523-2.3553-0.24713-3.398-1.3988-1.9914-3.3219 36.532 6.463 85.372 9.3172 120.15 8.6122zm-117.92-3.1344c58.188 8.6873 109.87 7.2796 116.89 7.0378l-0.54548 2.091c-42.265-0.26669-79.601-1.9316-112.67-5.3335-2.6631-0.315-4.3815-1.794-3.6784-3.7953zm4.5211 5.9959c39.535 3.3709 78.209 4.8154 111.34 5.2297l-0.46034 2.1574c-37.849-0.59818-70.892-1.4142-105.99-4.5341-3.0497-0.19045-5.0811-0.64194-4.8862-2.853zm5.3855 5.0016c36.911 2.712 73.888 3.8957 105.14 4.4792l-0.19626 1.4185c-29.137 0.0559-70.899-0.32845-99.734-2.8962-2.6699-0.31407-5.6748-0.84769-5.2138-3.0016zm5.4072 5.1315c34.646 2.4392 70.565 2.984 99.288 2.8717l-0.14574 1.4128c-34.98 0.014-65.812-0.17844-94.298-1.319-2.1405-0.0997-7.638-0.54336-4.8444-2.9655zm5.3696 4.9728c32.711 0.99583 65.652 1.4897 93.489 1.4098l-0.31026 1.9467c-30.263-0.49352-60.526-0.99031-90.789-1.4864-1.6577-0.11561-2.8888-0.56056-2.3897-1.8702zm4.625 4.0016c29.405 0.48299 58.81 0.96414 88.214 1.446l-0.21215 1.3305-86.501-0.99718z" color="#000000" style="-inkscape-stroke:none"/>
  <path d="m229.94 269.59c-7.2396-0.0963-16.919 5.0825-6.0334 17.597l7.7853 0.31457s-9.9968-10.488 4.3104-13.713c0.85305-2.6489-2.2701-4.1474-6.0623-4.1978zm-6.0334 17.597s-1.8796 2.4704-1.4878 7.3683c97.606 8.1586 133.46 6.8906 133.46 6.8906l1.2612-7.5342s-70.986-2.661-133.23-6.7247z" color="#000000" fill="#fdcf09" stroke-width="2.0944" style="-inkscape-stroke:none"/>
  <path d="m229.03 270.23c-6.8666-0.0709-15.044 3.5042-5.1258 16.953l1.6797-0.0112s-11.451-15.299 10.198-14.221v-1e-3c1.0163-1.3224-2.6321-2.6762-6.7521-2.7187z" fill="#fdf3b7"/>
  <path d="m224.31 269.46c-9.5622 4.3722-6.1943 12.336-1.6797 17.842-1.1229 2.3032-1.404 5.2524-1.254 7.3337 43.895 4.4352 93.9 8.4311 135.39 7.8228l1.5975-9.556c-43.383-1.5757-87.663-3.8738-126.02-6.2456-4.9494-7.2293-3.5192-10.117 3.889-11.85 2.5289-6.5508-6.7414-7.7358-11.923-5.3465zm10.619 3.6047c-8.1546 1.2913-9.3789 7.3792-5.4706 13.296l-4.9843-0.20217c-13.824-13.704 8.6992-19.962 10.455-13.094zm-9.605 15.25c3.467 0.22424 10.451 0.66093 10.451 0.66093-3.7998 5.2344-7.1361 9.174-10.451-0.6609zm15.252 0.94953 11.228 0.65948c-5.2116 7.5681-6.2497 7.2107-11.228-0.65948zm1.4041 5.804-8.0768-0.63641c4.8927-7.8785 4.7453-4.9916 8.0768 0.63641zm-18.193-4.8184c0.48828 1.243 1.0842 2.4886 1.7966 3.5037-0.68451-0.0564-1.341-0.10835-2.0318-0.16587-9e-3 -1.262 0.0705-2.4376 0.23522-3.3378zm33.749 0 12.096 0.6638c-7.179 7.6197-5.153 8.0292-12.096-0.6638zm1.8356 6.1114-9.3857-0.68402c4.3736-7.1429 5.9395-5.755 9.3857 0.68402zm16.657-5.1099 12.812 0.6566c-7.5271 6.2364-6.1417 8.0689-12.812-0.6566zm1.635 6.3467-9.8576-0.65082c4.7387-9.5115 5.6315-4.9725 9.8576 0.65082zm20.486 1.1962-12.022-0.67536c6.9153-9.4687 6.7289-6.4618 12.022 0.67536zm-1.635-6.5111 12.712 0.60753c-5.8733 8.2356-7.4664 8.1533-12.712-0.60753zm22.417 7.4751-12.081-0.52094c5.8349-10.463 7.5326-4.7016 12.081 0.52094zm-2.1285-6.5183 13.407 0.60031c-5.8749 6.621-8.0653 8.1028-13.407-0.60031zm22.089 0.9683 17.019 0.68832-0.92067 5.4923-28.141-0.34632c6.1031-5.2518 7.9781-8.7751 14.309-0.38386l1.7562-1.1516s-2.5075-3.0998-4.0232-4.2989z" color="#000000" stroke-width="2.7925" style="-inkscape-stroke:none"/>
  <path d="m777.83 294.55s1.026 8.8994-10.057 13.517c0 0 4.2268 4.5613-2.0016 5.4721 0 0 3.1346 5.1482-4.2946 6.0031 0 0 1.9172 4.8764-5.6554 5.0478 0 0 3.1329 3.866-5.7795 5.1589 0 0 5.6626 3.8314-5.0045 4.9858 0 0 2.6243 3.6026-3.0246 3.9944l-3.3017 3.902-87.877 1.0159-6.4649-42.207s35.47 1.2367 133.46-6.8906z" color="#000000" fill="#db3f26" style="-inkscape-stroke:none"/>
  <path d="m778.75 293.42 0.1198 1.0087c-0.19799 7.194-4.2688 11.688-9.4751 14.054 1.5299 2.5756 0.47129 5.0408-2.1603 5.817 0.9022 3.4229-1.6226 5.5175-4.5154 6.1056 0.10891 3.267-2.6526 4.7852-5.3653 5.1257 0.23318 3.0875-2.8768 4.3416-5.2138 4.892 1.6733 3.6492-3.2032 4.8058-5.5572 5.1676 0.54591 2.7171-1.9545 3.9128-4.0464 4.143l-3.3335 3.9395-89.223 1.0039-6.7644-44.326 2.0393 0.0332c74.137-3.0265 64.79-1.1697 133.49-6.9642zm-2.143 2.2627-3.485 0.27841c-2.089 5.3389-5.2106 9.2128-7.2932 11.384 5.2318-1.228 10.846-4.7062 10.778-11.663zm-5.2571 0.41993-2.8659 0.22955c-1.9465 4.6452-4.4563 8.3094-7.5876 11.868l2.4215-0.41848c1.0517-0.95819 5.1719-4.9888 8.0321-11.679zm-4.2614 0.342-10.26 0.80522c-2.2549 5.7666-5.841 10.325-8.0263 12.768l10.041-1.4893c3.0409-3.7909 6.3416-7.4617 8.2456-12.084zm-12.011 0.93655-2.85 0.21223c-1.866 5.1212-4.466 9.1387-7.8734 13.052l2.2079-0.31169c1.1384-1.1801 5.6076-6.0781 8.5155-12.953zm-4.1892 0.3117-11.679 0.84707c-2.4002 6.0957-6.5086 11.211-8.7911 13.765l11.95-1.3983c3.214-4.0784 6.7866-8.1636 8.5198-13.214zm-13.431 0.96829-2.8587 0.19771c-2.2371 5.4426-5.095 9.6447-8.8157 13.904l2.5081-0.24825c1.0074-1.0617 6.1118-6.6681 9.1663-13.853zm-4.2368 0.29294-12.532 0.81822c-2.4594 6.2439-6.713 11.623-8.9499 14.193l12.109-1.0102c3.4681-4.3729 7.2809-8.6361 9.3727-14.001zm-14.269 0.92934-2.8111 0.1776c-2.2698 5.5271-5.0959 9.7832-8.8113 14.204l2.3854-0.16308c0.89698-0.97615 6.1383-6.8906 9.237-14.218zm-4.1921 0.25691-14.553 0.81102c-2.4493 6.2468-6.7323 11.598-9.0032 14.168l14.281-0.73887c3.4182-4.4834 7.1665-8.8199 9.276-14.24zm-16.275 0.89904-3.1863 0.16448c-2.2356 5.4665-4.9856 9.6791-8.6439 14.08l2.5629-0.0924c1.0276-1.1041 6.2163-6.9062 9.2673-14.152zm-4.5615 0.23513-14.109 0.5931c-2.4374 6.2076-6.5594 11.372-8.745 13.845l13.781-0.36221c3.3518-4.4314 7.0051-8.7444 9.0725-14.076zm-15.823 0.6638-2.6812 0.10528c-2.2251 5.3835-5.0288 9.509-8.7666 13.729l2.4633-0.0223c0.95476-1.0207 5.9442-6.584 8.9845-13.812zm-4.0319 0.14298s-27.896 0.40765-28.557 0.38673l1.1948 13.249c0.47383 0.0112 18.149 0.072 18.149 0.072 3.4161-4.2664 7.1753-8.4667 9.2125-13.708zm-26.955 15.761 0.46467 1.762c44.807 1.7328 84.146-2.2483 117.69-7.0522 2.3553-0.24713 3.398-1.3988 1.9914-3.3219-36.532 6.463-85.372 9.3172-120.15 8.6122zm117.92-3.1344c-58.188 8.6873-109.87 7.2796-116.89 7.0378l0.54546 2.091c42.265-0.26669 79.601-1.9316 112.67-5.3335h6e-3c2.3353-0.29653 4.7427-1.2729 3.6726-3.7952zm-4.5211 5.9959c-39.535 3.3709-78.209 4.8154-111.34 5.2297l0.46035 2.1574c37.849-0.59818 70.892-1.4142 105.99-4.5341 2.423-0.12566 5.2056-0.44541 4.8862-2.8517zm-5.3855 5.0016c-36.911 2.712-73.888 3.8957-105.14 4.4792l0.19631 1.4185c29.137 0.0559 70.899-0.32845 99.734-2.8962 1.9158-0.24657 5.832-0.8235 5.2138-3.0016zm-5.4072 5.1315c-34.646 2.4392-70.565 2.984-99.288 2.8717l0.14577 1.4128c34.98 0.014 65.812-0.17844 94.298-1.319 2.1405-0.0997 7.6381-0.54336 4.8444-2.9655zm-5.3696 4.9728c-32.711 0.99584-65.652 1.4897-93.489 1.4098l0.31027 1.9467c30.263-0.49352 60.526-0.99031 90.789-1.4864 1.4501-0.0402 3.0137-0.40299 2.3897-1.8702zm-4.625 4.0016c-29.405 0.48299-58.81 0.96414-88.214 1.446l0.21223 1.3305 86.501-0.99717z" color="#000000" style="-inkscape-stroke:none"/>
  <path d="m770.31 269.59c7.2396-0.0963 16.919 5.0825 6.0334 17.597l-7.7853 0.31458s9.9968-10.488-4.3104-13.713c-0.85305-2.6489 2.2702-4.1474 6.0623-4.1978zm6.0334 17.597s1.8796 2.4704 1.4878 7.3683c-97.606 8.1586-133.46 6.8906-133.46 6.8906l-1.2613-7.5342s70.986-2.661 133.23-6.7247z" color="#000000" fill="#fdcf09" stroke-width="2.0944" style="-inkscape-stroke:none"/>
  <path d="m771.22 270.23c6.8666-0.0709 15.044 3.5042 5.1257 16.953l-1.6797-0.0112s11.451-15.299-10.198-14.221v-1e-3c-1.0163-1.3224 2.6321-2.6762 6.7521-2.7187z" fill="#fdf3b7"/>
  <path d="m775.94 269.46c9.5622 4.3722 6.1943 12.336 1.6797 17.842 1.123 2.3032 1.404 5.2524 1.254 7.3336-43.895 4.4352-93.9 8.4311-135.39 7.8228l-1.5975-9.556c43.383-1.5757 87.663-3.8738 126.02-6.2456 4.9494-7.2293 3.5192-10.117-3.8891-11.85-2.5289-6.5508 6.7414-7.7358 11.923-5.3465zm-10.62 3.6047c8.1546 1.2913 9.3789 7.3792 5.4706 13.296l4.9844-0.20218c13.824-13.704-8.6992-19.962-10.455-13.094zm9.605 15.25c-3.467 0.22424-10.451 0.66093-10.451 0.66093 3.7998 5.2344 7.1361 9.174 10.451-0.6609zm-15.252 0.94953-11.228 0.65948c5.2116 7.5681 6.2497 7.2107 11.228-0.65948zm-1.4041 5.804 8.0768-0.63641c-4.8927-7.8785-4.7453-4.9916-8.0768 0.63641zm18.193-4.8184c-0.48829 1.243-1.0842 2.4886-1.7966 3.5038 0.6845-0.0564 1.341-0.10835 2.0318-0.16588 8e-3 -1.262-0.0704-2.4376-0.23512-3.3378zm-33.749 0-12.096 0.66381c7.179 7.6197 5.153 8.0292 12.096-0.66381zm-1.8356 6.1114 9.3857-0.68402c-4.3736-7.1429-5.9395-5.755-9.3857 0.68402zm-16.657-5.1099-12.812 0.6566c7.5271 6.2364 6.1417 8.0689 12.812-0.6566zm-1.635 6.3467 9.8576-0.65081c-4.7387-9.5115-5.6315-4.9726-9.8576 0.65081zm-20.486 1.1962 12.022-0.67537c-6.9153-9.4687-6.7289-6.4618-12.022 0.67537zm1.635-6.5111-12.712 0.60753c5.8733 8.2356 7.4664 8.1533 12.712-0.60753zm-22.417 7.4751 12.081-0.52094c-5.8349-10.463-7.5326-4.7016-12.081 0.52094zm2.1285-6.5183-13.408 0.60031c5.8749 6.621 8.0653 8.1028 13.408-0.60031zm-22.089 0.9683-17.019 0.68832 0.92068 5.4923 28.141-0.34632c-6.1031-5.2518-7.9781-8.7751-14.309-0.38386l-1.7562-1.1516s2.5076-3.0998 4.0233-4.2989z" color="#000000" stroke-width="2.7925" style="-inkscape-stroke:none"/>
  <path d="m674.86 200.08s5.6039 1.775-2.1675 6.2485c0 0 8.131 4.2974-4.1791 10.077 0 0 8.3907 4.9112-3.1358 9.0581 0 0 6.6608 5.346-3.788 8.3828 0 0 5.1707 6.302-3.8414 8.0653 0 0 4.2932 8.0103-5.3393 6.247l-19.155-8.2283-21.949-0.0996 0.19045 19.78-111.37-0.0548-111.37 0.0548 0.19044-19.78-21.949 0.0996-19.155 8.2283c-9.6326 1.7632-5.3407-6.247-5.3407-6.247-9.0122-1.7632-3.84-8.0653-3.84-8.0653-10.449-3.0367-3.7895-8.3828-3.7895-8.3828-11.526-4.1469-3.1343-9.0581-3.1343-9.0581-12.31-5.7795-4.1791-10.077-4.1791-10.077-7.7713-4.4734-2.1675-6.2485-2.1675-6.2485l174.73 0.29438z" color="#000000" fill="#db3f26" stroke-width="2.0944"/>
  <path d="m325.51 201.14c-0.31828 0.22035-2.2718 0.63707-0.0866 2.599 3.142-4.9387 21.985 5.3509 21.985 5.3509-4.0637-7.7117 11.428-2.1473 11.428-2.1473-0.0924-6.9729 13.853 0.32325 13.853 0.32325 5.5183-7.2489 17.051 2.2613 17.051 2.2613 4.4793-13.022 14.598-0.72009 14.598-0.72009 7.7298-12.192 16.074 0.25687 16.074 0.25687 9.731-12.545 17.711 0.52095 17.711 0.52095 10.318-13.518 19.44-0.31748 19.44-0.31748 10.514-12.865 17.64 0 17.64 0 7.6672-12.721 15.938 0.035 15.972 0.0866v0.11544s0.12419-0.20208 0.35211-0.52239c3e-3 -4e-3 1e-3 -3e-3 4e-3 -7e-3 3.15-3.8422 6.0722-5.1881 8.5934-5.2282 2.5208 0.0406 5.4427 1.387 8.592 5.2282 7.4e-4 1e-3 1e-3 3e-3 3e-3 4e-3 0.23019 0.3232 0.35355 0.52528 0.35355 0.52528v-0.11545c0.0333-0.0515 8.3046-12.807 15.972-0.0866 0 0 7.1258-12.865 17.64 0 0 0 9.1212-13.201 19.439 0.31748 0 0 7.9797-13.066 17.711-0.52095 0 0 8.3444-12.449 16.074-0.25686 0 0 10.119-12.302 14.598 0.72008 0 0 11.533-9.5102 17.051-2.2613 0 0 13.946-7.2961 13.853-0.32324 0 0 15.491-5.5645 11.428 2.1473 0 0 18.739-10.336 21.881-5.397 2.1846-1.9619 0.33561-2.3324 0.0173-2.5528zm1.6004 5.5644-1.9164 1.4084c14.962 8.7738 38.576 10.741 38.576 10.741l1.9683-3.1675zm346.03 0-38.628 8.9816 1.9683 3.1675s23.614-1.9669 38.576-10.741zm-341.43 9.8677-2.3248 1.4402c13.134 6.8957 34.02 7.4823 34.02 7.4823l-0.74029-3.4359zm336.83 0-30.955 5.4865-0.74029 3.4359s20.886-0.58659 34.02-7.4823zm-333.97 8.9037-0.96973 1.7548c12.984 3.7351 30.923 4.3552 30.923 4.3552l-3.332-3.2469zm331.11 0-26.622 2.863-3.332 3.2469s17.939-0.62006 30.923-4.3552zm-327.34 8.403-0.78359 1.8284c9.972 2.7723 26.22 1.8125 26.22 1.8125l1.8616-2.8573zm323.58 0-27.298 0.78357 1.8616 2.8573s16.248 0.95984 26.22-1.8125zm-272.96 5.9425v7.0104h222.35v-7.0104h-116.3zm-41.078 1.9597-5.387 0.2612-0.35932 1.7793c2.9877 0.93061 6.0565 0.0159 6.0565 0.0159zm304.51 0-0.31025 2.0564s3.0688 0.91474 6.0565-0.0159l-0.35932-1.7793z" fill="#762014"/>
  <path d="m675.02 199.03c3.7095 2.708 1.7955 5.7141-0.48051 7.3192 4.2174 4.2693-0.48494 8.2012-4.1026 10.168 4.163 3.9647 0.554 7.5914-3.2729 9.2731 3.0985 4.1043-0.34714 7.2099-3.9828 8.553 2.162 4.0686-0.24435 7.1063-4.003 8.211 2.0543 5.538-2.6243 7.3963-6.9599 6.6323l-0.11533-0.0218-19.069-8.1908-20.673-0.0938 0.19045 19.776-112.42-0.0548-112.42 0.0548 0.19048-19.776-20.673 0.0938-19.069 8.1908c-5.828-0.19498-8.4942-2.5941-7.0768-6.6105-4.116-1.0346-6.0578-4.4801-4.0016-8.211-4.0669-1.2717-6.9492-4.8594-3.9843-8.553-4.3697-1.6164-7.189-5.768-3.2714-9.2731-3.9891-1.9074-8.2875-6.4228-4.1026-10.168-2.9849-1.7908-5.0055-5.7102-0.63494-7.2702zm-0.40983 2.0953-7.742 0.0131c-6.7184 5.3599-15.241 8.772-22.391 11.781 9.0442-2.2419 19.214-3.3676 27.737-7.5299 0 0 5.1371-2.5885 2.3955-4.2644zm-348.96 0c-2.8696 1.4596 1.2004 3.5661 2.4041 4.27 9.6154 3.7775 18.454 5.7229 27.726 7.5241-8.3625-3.8227-15.337-5.8439-22.391-11.781zm338.14 0.0187-11.832 0.0187-21.018 13.5 3.6538 0.0218c10.315-5.8658 21.107-7.9086 29.196-13.54zm-327.32 0c9.2166 5.6072 20.551 10.144 29.196 13.54l3.6538-0.0218-21.018-13.5zm311.6 0.026-11.908 0.0201-15.468 13.41 6.4029 0.0389zm-295.88 0 20.972 13.47 6.4029-0.0389-15.468-13.41zm280.78 0.026-14.605 0.0246-10.524 13.305 9.6844 0.0563zm-265.67 0 15.445 13.386 9.6844-0.0563-10.524-13.305zm248.39 0.0289-14.706 0.0246-7.5905 13.19 11.788 0.0707zm-231.12 0 10.508 13.285 11.788-0.0707-7.5905-13.19zm213.99 0.0289-15.369 0.026-4.2412 13.074 12.031 0.0707zm-196.87 0 7.579 13.171 12.031-0.0707-4.2412-13.074zm179.3 0.0289-16.872 0.0289-1.1371 12.947 13.774 0.0823zm-161.73 0 4.2354 13.058 13.774-0.0823-1.1371-12.947zm142.75 0.0332-18.033 0.0303-0.39974 12.797 17.302 0.10391zm-123.77 0 1.1299 12.931 17.302-0.10391-0.39973-12.797zm103.65 0.0332-15.575 0.026-0.0433 12.666 15.219 0.0909zm-83.516 0 0.39973 12.783 15.219-0.0909-0.0433-12.666zm65.845 0.0303-13.889 0.0232-0.2814 12.452 14.128 0.17464zm-48.175 0 0.0433 12.65c3e-3 1.2e-4 14.128-0.17464 14.128-0.17464l-0.2814-12.452zm32.192 0.0274h-16.208l0.28285 12.459h15.643zm164.33 6.1013c-12.812 4.829-24.107 7.0205-37.602 9.2601-44.944-0.24507-89.891-0.52178-134.84-0.78796l-134.75 0.79801c-14.013-3.83-26.731-4.3744-37.687-9.2702-4.2944 3.5602 1.8171 6.6709 4.498 7.9469 21.823 7.1096 65.149 7.6645 96.207 8.2283 22.899 0.82409 50.733-0.11139 71.838 0.14574 24.946-0.0145 50.848 0.20237 71.623-0.14574 20.402-0.35716 41.552-1.062 59.075-2.3623 17.504-1.2989 31.509-3.2851 37.12-5.8588 0 0 8.9367-4.035 4.5127-7.9541zm-4.2065 10.074c-6.6059 2.8034-20.155 4.5582-37.274 5.8285-17.592 1.3054-38.769 2.0091-59.193 2.3666-30.352 0.53135-58.912 0.29964-71.654 0.14574-12.675 0.15389-41.417 0.38746-71.875-0.14574-20.424-0.35743-41.601-1.0611-59.193-2.3665-17.118-1.2702-30.666-3.0241-37.273-5.8271-4.4304 3.3514 0.33269 5.7816 3.2873 6.8719 5.8641 1.4946 19.694 2.5333 36.903 3.1603 17.246 0.62833 37.971 0.88296 57.933 0.93799 23.667 0.67694 47.353-0.8339 70.672-0.46178 24.663 0.0942 49.858 0.5078 69.541 0.46178 19.962-0.055 40.687-0.30966 57.933-0.93799 17.21-0.62701 31.039-1.6657 36.903-3.1603 2.7457-0.9945 4.2062-2.0196 4.84-2.8125 0.83976-1.7205-0.48648-3.2377-1.5525-4.0609zm-3.3161 9.0206c-6.5838 1.5553-19.984 2.4943-36.8 3.1069-17.287 0.62981-38.028 0.88287-58.004 0.93799-33.713 0.093-60.499-0.31774-69.527-0.46611-11.998 0.18313-40.361 0.54983-70.697 0.46611-19.976-0.0551-40.717-0.30818-58.004-0.93799-16.816-0.61265-30.216-1.5516-36.8-3.1069-3.2006 3.472 0.84941 5.3516 3.638 6.198 10.43 0.6141 52.542 0.49694 91.984 0.20924 23.344 0.31341 46.388-0.92224 69.293-0.65659 24.481 0.0779 49.694 0.51174 69.294 0.65659 39.443 0.28771 81.557 0.40493 91.985-0.20924 4.3915-2.6622 5.8692-3.5135 3.6364-6.198zm-164.92 7.8445c-8.9053 0.10416-35.804 0.41243-69.277 0.65659-39.088 0.28512-80.397 0.41901-91.639-0.19626-2.2084 3.5414 0.42566 5.3339 3.4432 5.9598 0.56349 0.0639 2.9977-0.0251 5.0853-0.17316 2.0978-0.14861 3.9814-0.3218 3.9814-0.3218l0.19048 2.0838s-1.8998 0.17702-4.0247 0.32758c-1.7624 0.1248-3.4437 0.2143-4.6856 0.17316-1.7514 4.1384 1.3603 4.6874 4.3782 4.1748l19.207-8.25 22.158-0.101c37.037 0.0974 74.272-0.78989 111.18-0.59019 36.911 0.0974 74.145 0.39331 111.18 0.59019l22.161 0.101 19.207 8.25c3.8189 0.74118 5.8593-0.46029 4.3768-4.1748-1.242 0.0413-2.924-0.0483-4.6871-0.17316-2.1249-0.15054-4.0247-0.32758-4.0247-0.32758l0.19045-2.0838s1.8836 0.17316 3.9814 0.3218c2.0883 0.14795 4.5242 0.2372 5.0868 0.17316 3.681-0.68978 5.3782-2.6644 3.4432-5.9598-11.24 0.61534-52.55 0.48139-91.639 0.19626-23.093-0.17738-46.186-0.3875-69.278-0.65659zm0 5.8372-110.14 0.58445-0.17028 17.692 110.31-0.0548 110.31 0.0548-0.17034-17.692z" color="#000000" stroke-width=".73885" style="-inkscape-stroke:none"/>
  <path d="m671.15 178.21c5.3448 0.10667 10.629 4.4784 5.3249 14.416 0 0 4.2005 4.0399-1.6133 7.452-2.1274 0.46965-88.302 0.46644-174.35 0.20491-86.187 0.26283-172.65 0.26696-174.78-0.20346-5.8138-3.4121-1.6134-7.452-1.6134-7.452-9.4301-17.667 14.607-17.742 12.951-7.5371-3.7602 1.6396-2.9408-0.79635-5.8458-0.21935-3.349 0.76734-2.5622 4.7274 3.573 6.5457 16.676-0.0411 71.918 0.38821 133.62 0.49641l-1e-3 -0.0332c11.261 0.0362 22.648 0.0509 34.007 0.0534 9.9429-5e-3 19.907-0.0204 29.756-0.0519l-1e-3 0.0303c61.698-0.10818 116.94-0.53607 133.62-0.49497 6.1352-1.8184 6.9205-5.7784 3.5716-6.5457-2.905-0.577-2.0857 1.8575-5.8458 0.2179-0.72449-4.4646 3.4695-6.962 7.6266-6.8791z" color="#000000" fill="#fdcf09" stroke-width="2.0944" style="-inkscape-stroke:none"/>
  <path d="m669.23 177.85c-2.6529 0.0431-5.2181 1.3637-6.1532 5.8054 15.885-7.4347 13.506 8.4145 13.506 8.4145 4.6178-9.328 0.0837-11.938 0.0837-11.938s-3.8006-2.3405-7.4361-2.2815zm-337.85 0.12411c-3.371 0.0325-6.8589 2.4821-6.8589 2.4821s-5.4721 2.2858-0.85429 11.614c0 0-2.3796-15.849 13.506-8.4145-0.9351-4.4417-3.3325-5.705-5.7924-5.6813z" fill="#fdf3b7"/>
  <path d="m671.17 177.16c9.198 0.0951 9.4953 9.1333 6.5198 15.288 2.4244 3.3024 0.76037 6.7029-2.2988 8.5314-0.27562 0.17794-0.90932 0.18469-0.90932 0.18469s-232.24 0.08-348.36 1e-3l-0.88749-0.0232c-3.3343-1.9422-4.6661-5.514-2.3262-8.6872-2.9248-6.2438-2.7368-13.455 4.5687-15.076 2.5732-0.52951 5.3554-0.11357 7.4996 1.205 3.0309 2.1038 3.4728 4.5792 3.0449 7.2355-1.5688 0.7135-3.4084 0.94425-4.6755 0.48344-1.1689-0.77552-3.0869-0.55444-2.9163 1.0433 0.34357 0.8279 1.7798 2.1659 4.5817 3.0218l330.58 5e-5c2.8019-0.85589 4.2384-2.194 4.5817-3.0218 0.0112-1.931-2.0863-1.4918-2.9169-1.0448-1.524 0.69808-4.0239 0.24043-4.765-1.0477-0.47286-5.4418 4.2538-7.8652 8.6792-8.094zm-0.0405 2.0952h-1e-3c-2.2087-0.2566-7.5374 2.3479-6.5169 5.0652 0.61284 0.30037 1.1534 0.28246 1.6668 0.12988 0.48285-0.25479 1.5844-0.94863 3.2945-0.60897l0.0168 3e-3 0.014 4e-3c1.037 0.23761 1.9026 0.76544 2.3839 1.5758 1.4636 3.6229-3.3265 6.182-6.0392 7.0378l-3.7419 9e-3c1.8806 2.0625 3.3667 4.7604 4.7145 6.7449l7.5572-0.15146c2.4105-1.5219 3.0936-3.4063 1.2713-5.6857l-0.57146-0.54837 0.37375-0.69988c2.9674-5.7941 2.8612-12.62-4.4215-12.875zm-343.23 0.17476c-6.6509 1.7107-4.7293 9.0922-2.8486 12.702l0.37376 0.69989-0.57146 0.54835c-1.8373 2.3537-0.96418 4.2905 1.2714 5.6857l7.6194 0.15295c1.6417-2.3663 2.9467-4.7632 4.713-6.7478 0 0-2.534-0.0106-3.801-9e-3 -2.7092-1.3319-8.0145-3.5522-6.0406-7.0378 1.4424-1.859 3.7868-1.9108 5.7089-0.9744 0.60448 0.30965 1.1332 0.0491 1.736-0.14864 0.0827-1.7946-0.74535-3.0512-2.1805-3.9338-2.1792-1.3337-4.209-1.1762-5.9802-0.93761zm327.56 13.057c-2.9905 8e-3 -4.8741 4e-3 -8.6944 0.0201 6.6339 8.0811 3.8227 6.5122 8.6944-0.0201zm-310.25 0c2.4938 7.736 5.117 7.438 8.6959 0.0201zm295.69 0.0477c-2.9904 0.0137-6.6427 0.0312-10.002 0.0477 5.8637 7.2237 4.5322 7.2324 10.002-0.0477zm-271.13 0.0475-10.003-0.0476c6.8088 7.783 3.934 5.6363 10.003 0.0476zm255.16 0.029c-3.9249 0.0193-7.259 0.0339-11.562 0.0548 8.2904 7.8124 3.5129 7.0161 11.413 0.0476 0.0466-0.0394 0.10165-0.0637 0.14857-0.10245zm-249.18 0c6.687 7.2428 5.4098 5.8603 11.562 0.0548zm261.98 6.7637 11.835-0.0404c-8.7224-9.3372-2.9081-8.319-11.835 0.0404zm-286.61-0.0375 11.839 0.0389c-7.3055-7.5947-3.9684-8.6684-11.839-0.0389zm256.36-6.6453-13.099 0.0577c7.2536 8.1382 5.1996 6.5713 13.099-0.0577zm-214.28 0c8.4057 7.4287 5.9956 7.7281 13.091 0.0592zm194.85 0.0866s-7.6355 0.0355-11.914 0.0519c7.8027 6.4277 5.0916 7.4466 11.914-0.0519zm-175.43 1e-3c6.5074 7.6442 4.8388 6.3657 11.911 0.052zm157.16 0.0692s-9.0682 0.0251-13.598 0.0389c8.7199 7.2589 5.8328 6.9088 13.598-0.0389zm-138.89 1e-3c8.015 7.0885 5.3368 6.857 13.591 0.0391zm222.98 6.4663 10.549-0.0766c-5.9856-8.9239-5.0438-8.3392-10.549 0.0766zm-317.63-0.0736 10.556 0.0749c-5.5724-6.9314-4.0994-10.046-10.556-0.0749zm213.18-6.335-13.038 0.0375c7.7772 6.3198 5.9 6.583 13.038-0.0375zm-98.176 1e-3c7.769 6.6273 4.5274 6.6576 13.035 0.0375zm18.389 0.0173c7.2152 7.0601 5.1061 6.8712 12.174 0.0187zm61.392 1e-3 -12.165 0.0218c7.3571 6.5893 4.1899 7.3164 12.165-0.0218zm-43.316 0.0274c6.3029 5.9423 5.449 7.2079 11.207-0.0249zm25.241 4e-3 -11.283-4e-3c6.0193 7.2416 5.5836 5.8123 11.283 4e-3zm72.289 6.4274 12.029 6e-3c-5.8156-7.8922-7.2008-7.1282-12.029-6e-3zm-181.85 9e-3 12.034-7e-3c-7.5535-9.0345-4.6309-7.5934-12.034 7e-3zm199.63-0.0232 14.016 0.0304c-9.0011-9.2531-5.2751-6.933-14.016-0.0304zm-219.39 0.0317 14.055-6e-3c-9.597-6.6134-4.7853-9.2373-14.055 6e-3zm126.09-0.15009 12.547 0.0274c-6.5694-6.5417-6.4094-6.8491-12.547-0.0274zm-31.316 0.0288 12.555-0.0289c-7.9452-8.5351-6.1699-6.8216-12.555 0.0289zm67.339 0.0535 14.777 0.0332c-7.8114-7.3122-7.9157-6.6837-14.777-0.0332zm-105.59 0.0346 14.778-0.0332c-8.3478-7.9868-5.1855-7.7063-14.778 0.0332zm181.19 0.0303 12.98-0.0218c-6.8489-6.0892-5.398-9.4338-12.98 0.0218zm-254.99-0.0201 12.992 0.0201c-9.2469-7.7437-4.3094-8.3148-12.992-0.0201zm199.68-3e-3 14.084 7e-3c-7.3321-7.728-6.7094-7.7648-14.084-7e-3zm-145.47 9e-3 14.09-7e-3c-7.1618-7.7222-6.8785-6.7914-14.09 7e-3zm39.38-0.0606 12.887-0.0303c-4.4-7.3861-5.8804-7.6528-12.887 0.0303zm67.934-0.0461 12.864 0.0448c-7.2425-6.9722-6.6073-6.5765-12.864-0.0448zm-32.113-0.0361 9.156-1e-3c-7.1319-7.4963-2.5895-4.6895-9.156 1e-3z" color="#000000" stroke-width=".73885" style="-inkscape-stroke:none"/>
  <path d="m482.19 366.65v0.12266l-57.443 0.1977-5.1546 15.133c-14.89-7.3142-15.9 2.0162-32.684 6.0652l-1.6364 19.072c19.983 0.58774 17.894-13.258 41.666-8.6209l3.5427-13.812 51.618 0.23811-1e-3 0.16739 18.025-0.0837 18.024 0.0837-1e-3 -0.16739 51.618-0.23811 3.5427 13.812c23.771-4.6367 21.682 9.2086 41.666 8.6209l-1.6364-19.072c-16.784-4.049-17.794-13.379-32.684-6.0652l-5.1546-15.133-57.443-0.1977v-0.12266l-17.931 0.0621z" color="#000000" fill="#75aebf" stroke-width="2.0944" style="-inkscape-stroke:none"/>
  <path d="m389.39 259.55 7e-3 0.0577h-0.64089l-0.20203 8.693 111.57-0.39539 111.57 0.39539-0.20203-8.693h-0.64072l7e-3 -0.0577-110.73 0.0289zm222.3 8.7507-22.829-0.0101 4.3148 73.072h-186.11l4.3148-73.072-22.829 0.0101-7.1489 72.253-5.3234-0.28577-1.3998 26.695s19.174 0.0537 28.762 0.0808v1e-3h193.36v-1e-3c0 1e-3 28.762-0.0808 28.762-0.0808l-1.3998-26.695-5.2932 0.28429zm-350.15 74.335-0.4156 15.931 11.452 7.8041c19.487 6.0955 21.551 24.574 21.551 24.574 21.981-13.115 24.163 10.383 24.163 10.383 12.468-6.5573 23.138 2.7245 23.138 2.7245l1.7548-13.484c-0.46071-0.42745-6.686-5.919-19.072-2.6783 0 0-7.8964-10.252-23.089-7.4808 0 0-0.72661-11.012-4.9237-14.158l50.142-0.25398 3.1762-22.346zm477.17 0-87.877 1.0159 3.1762 22.346 50.142 0.25398c-4.1971 3.1458-4.9237 14.158-4.9237 14.158-15.193-2.7707-23.089 7.4808-23.089 7.4808-12.386-3.2407-18.611 2.2509-19.072 2.6783l1.7548 13.484s10.67-9.2818 23.138-2.7245c0 0 2.1819-23.497 24.163-10.383 0 0 2.0636-18.478 21.551-24.574l11.452-7.8041z" color="#000000" fill="#fdcf09" stroke-width="2.0944" style="-inkscape-stroke:none"/>
  <path d="m346.24 366-50.148 0.24965c4.2022 3.1401 4.9295 14.162 4.9295 14.162 15.193-2.7707 23.089 7.4808 23.089 7.4808 12.884-3.371 19.072 2.6783 19.072 2.6783zm307.77 0 3.0578 24.571s6.1879-6.0493 19.072-2.6783c0 0 7.8964-10.252 23.089-7.4808 0 0 0.7273-11.022 4.9295-14.162z" fill="#89d6f3"/>
  <path d="m424.75 366.97-45.874 4e-3 -2.0751 20.805c23.99 3.6235 24.598-14.731 42.795-5.6756zm150.75 0 5.1532 15.133c18.198-9.0551 18.806 9.299 42.795 5.6756l-2.0751-20.805z" color="#000000" fill="#fff" stroke-width="2.0944" style="-inkscape-stroke:none"/>
  <path d="m388.2 258.5-0.46755 0.0592-0.22223 9.6786-7.146 72.221 1.9856 1.1992s19.419 1.0388 19.419 1.039l0.59744 23.093-24.44 0.13275-2.2642 22.738 0.98128 0.14719c3.4822 0.52594 6.4658 0.55749 9.1346 0.31314l-1.6408 19.131 1.1083 0.0332c10.232 0.30092 15.081-3.1998 19.956-5.9671 4.875-2.7672 9.8387-4.9545 21.538-2.6726l0.97118 0.18471 0.24532-0.95386 3.3378-13.024h137.66l3.3378 13.024 0.24532 0.95386 0.97117-0.18471c11.699-2.282 16.663-0.0948 21.538 2.6726 4.875 2.7673 9.7239 6.268 19.956 5.9671l1.1083-0.0332-1.6408-19.131c2.6688 0.24426 5.6524 0.21286 9.1346-0.31314l0.98128-0.14719-2.2642-22.738-24.44-0.13275 0.59743-23.093 20.418-1.0938-0.0548-1.0419 1.0419-0.10246-7.146-72.221-0.22223-9.6786h-0.47477l9e-3 -0.0592zm1.7071 1.99 220.49 0.30159 0.24821 6.2816-220.86 0.27852zm197.97 8.7724 4.1892 71.048h-183.88l4.1892-71.048zm-177.6 0.0736-4.1921 70.971-23.526-0.73308 6.9498-70.227zm179.7 0 20.769 0.0101 6.9498 70.227-23.526 0.73449zm-329.46 72.24-0.45312 17.535 12.19 8.3077 0.15874-1e-3c18.793 5.9681 20.67 23.645 20.67 23.645l0.18616 1.6148 1.3954-0.83409c5.3705-3.2042 9.4044-4.095 12.397-3.7693 2.993 0.32571 5.0419 1.8308 6.5616 3.7852 3.0394 3.9088 3.6221 9.5661 3.6221 9.5661l0.14719 1.56 1.3853-0.73019c11.89-6.2532 21.963 2.5845 21.963 2.5845l1.4719 1.2814 2.078-15.953-0.39828-0.36509c-0.62011-0.57537-7.1522-5.9895-19.497-2.9944-0.6881-0.8376-8.2302-9.4431-22.471-7.4289-0.0567-0.70173-0.15777-2.3761-0.76916-5.0998-0.53267-2.3728-1.2995-5.0054-2.6726-6.9945l48.667-0.24821 3.4691-24.418-1.1891-0.0173zm479.22 0-88.913 1.0246-1.1891 0.0173 3.4691 24.418 48.667 0.2482c-1.373 1.9892-2.1399 4.6217-2.6726 6.9945-0.61139 2.7237-0.71247 4.398-0.76915 5.0998-14.241-2.0142-21.783 6.5913-22.471 7.4289-12.345-2.9952-18.877 2.419-19.497 2.9944l-0.39828 0.3651 2.078 15.953 1.4719-1.2814s10.074-8.8377 21.963-2.5845l1.3853 0.73019 0.14719-1.5599s0.58268-5.6572 3.6221-9.566c1.5197-1.9544 3.5686-3.4595 6.5616-3.7852 2.993-0.32574 7.0269 0.56506 12.397 3.7693l1.3954 0.83409 0.18616-1.6148s1.8777-17.676 20.67-23.645l0.15874 1e-3 12.19-8.3077zm-143.35 1.1833-0.58878 23.043-191.35 9e-3 -0.57867-23.036zm-333.83 0.93366 85.652 0.98706-2.8804 20.272-48.882 0.24676-3e-3 -1e-3 -0.17893 3e-3 -23.366 0.11833-10.712-7.2976zm475.14 0 0.37087 14.328-10.712 7.2976-23.366-0.11833-0.17894-3e-3 -3e-3 1e-3 -48.882-0.24677-2.8804-20.272zm-442.08 23.606c1.5737 1.3322 2.8336 4.4859 3.4965 7.439 0.68611 3.0563 0.86728 5.7376 0.86728 5.7376l0.0765 1.1718 1.1559-0.21213c14.678-2.6949 22.073 7.0898 22.073 7.0898l0.41993 0.55124 0.66958-0.17461c11.486-3.0052 16.936 1.5473 17.683 2.2093l-1.4734 11.306c-1.9525-1.5116-10.383-7.2886-21.479-2.3623-0.19379-1.4882-0.85706-5.6581-3.8284-9.4795-1.7733-2.2806-4.3921-4.1945-7.9902-4.586-3.2939-0.35845-7.4375 0.74903-12.407 3.4734-0.54612-3.0764-3.6125-15.424-17.295-22.072zm409.02 0 18.031 0.0924c-13.683 6.6473-16.749 18.995-17.295 22.072-4.97-2.7244-9.1135-3.8319-12.407-3.4734-3.5982 0.39159-6.2169 2.3054-7.9902 4.586-2.9714 3.8213-3.6346 7.9912-3.8284 9.4795-11.096-4.9263-19.526 0.85071-21.479 2.3623l-1.4734-11.306c0.74766-0.66199 6.1978-5.2145 17.683-2.2093l0.66958 0.17461 0.41992-0.55124c1e-5 3e-5 7.3921-9.7672 22.073-7.0898l1.1559 0.21213 0.0765-1.1718s0.18116-2.6813 0.86728-5.7376c0.66294-2.9531 1.9229-6.1068 3.4965-7.439zm-129.87 0.76483 5.283 15.509 1.0693-0.53537c13.967-5.9453 20.412 3.5724 31.231 5.8747l1.4719 17.109c-8.7394-0.0442-12.975-2.818-17.742-5.524-4.8635-2.7607-10.647-5.0216-21.979-3.0218l-3.5182-13.724-140.91 1e-3 -3.5182 13.724c-11.332-1.9999-17.116 0.26112-21.979 3.0218-4.7672 2.7062-9.0031 5.4799-17.742 5.524l1.4719-17.109c0.0804-0.0223 0.15564-0.044 0.23522-0.0663 13.315-2.9554 18.088-12.108 30.996-5.8098l1.0693 0.53538 1.7562-5.1604 3.5268-10.348zm-194.94-0.0476 43.439 0.0491-2.8688 8.4332-1.4503 4.257c-11.505-5.9157-20.021 2.6586-29.62 5.6597-3.1022 0.69427-6.7453 0.96417-11.37 0.37808zm240.6 0 1.8702 18.777c-4.6246 0.58611-8.2677 0.31621-11.37-0.37808-12.055-4.7014-18.089-10.791-29.62-5.6597l-4.3191-12.69z" color="#000000" stroke-width="2.7925" style="-inkscape-stroke:none"/>
  <path d="m365.74 215.69c-11.645 3.3336-1.2698 8.5429-1.2698 8.5429-7.9673 7.6081 3.6019 7.3423 3.6019 7.3423 2.9644 6.7521 7.1778 0.68257 7.1778 0.68257 2.7108 5.9999 8.8027 1.2324 8.8027 1.2324 7.2961 1.6624 4.3754-5.094 4.3754-5.094 6.5573-7.3885-4.1142-7.8358-4.1142-7.8358 77.236-1.1258 154.47-0.51329 231.7-1e-3 0 0-10.671 0.44879-4.1142 7.8373 0 0-2.9208 6.7564 4.3754 5.094 0 0 6.0919 4.7676 8.8027-1.2324 0 0 4.2134 6.068 7.1778-0.68401 0 0 11.569 0.26579 3.6019-7.3423 0 0 10.375-5.2094-1.2699-8.5429-89.059-1.0971-185.04-0.48098-268.85 1e-3z" fill="#f9ee16" stroke="#000" stroke-width="1.3962"/>
  <path d="m470.17 223.91c-3.4919 4.3602 2.2396 4.4793 2.2396 4.4793-0.21929 4.2984 3.5052 3.4735 3.5052 3.4735-0.30299 6.2226 4.6755 2.5874 4.6755 2.5874 3.7047 5.0395 6.6222-0.49642 6.6222-0.49642 4.7344 1.9289 4.9786-3.7217 4.9786-3.7217 4.204-1.5891 2.2872-5.5803 2.2872-5.5803zm59.917 0-24.308 0.74173s-1.9167 3.9912 2.2872 5.5803c0 0 0.24406 5.6505 4.9786 3.7217 0 0 2.9175 5.5359 6.6222 0.49642 0 0 4.9785 3.6352 4.6755-2.5874 0 0 3.7244 0.82496 3.5052-3.4735 0 0 5.7315-0.11907 2.2396-4.4793zm-93.698 0.31314c-3.4919 4.3602 2.2382 4.4793 2.2382 4.4793-0.2193 4.2984 3.5052 3.4734 3.5052 3.4734-0.30299 6.2226 4.6755 2.5874 4.6755 2.5874 3.7048 5.0395 6.6222-0.49642 6.6222-0.49642 4.7344 1.9289 4.9786-3.7216 4.9786-3.7216 4.204-1.5891 2.2872-5.5803 2.2872-5.5803zm127.48 0-24.307 0.74174s-1.9167 3.9912 2.2873 5.5803c0 0 0.24407 5.6505 4.9786 3.7216 0 0 2.9175 5.5359 6.6222 0.49642 0 0 4.9785 3.6352 4.6755-2.5874 0 0 3.7244 0.82496 3.5052-3.4734 0 0 5.7301-0.11907 2.2382-4.4793zm-162.8 0.0577c-3.4919 4.3602 2.2396 4.4778 2.2396 4.4778-0.2193 4.2984 3.5052 3.4735 3.5052 3.4735-0.30299 6.2226 4.6755 2.5874 4.6755 2.5874 3.7047 5.0395 6.6222-0.49641 6.6222-0.49641 4.7344 1.9289 4.9786-3.7202 4.9786-3.7202 4.204-1.5891 2.2873-5.5818 2.2873-5.5818zm198.12 0-24.308 0.74029s-1.9167 3.9927 2.2872 5.5818c0 0 0.24406 5.6491 4.9786 3.7202 0 0 2.9175 5.5359 6.6222 0.49641 0 0 4.9785 3.6352 4.6755-2.5874 0 0 3.7244 0.82496 3.5052-3.4735 0 0 5.7315-0.11765 2.2396-4.4778zm-334.57 102.18c-4.879 5.3317 3.0146 5.625 3.0146 5.625-0.37002 5.3385 4.7736 4.4086 4.7736 4.4086-0.51571 7.7286 6.4 3.3364 6.4 3.3364 5.0238 6.36 9.1288-0.44881 9.1288-0.44881 6.4913 2.519 6.9166-4.498 6.9166-4.498 5.8162-1.8683 3.2397-6.8805 3.2397-6.8805zm471.02 0-33.473 1.5426s-2.5765 5.0122 3.2397 6.8805c0 0 0.4253 7.017 6.9166 4.498 0 0 4.1051 6.8088 9.1288 0.44881 0 0 6.9157 4.3923 6.4-3.3364 0 0 5.1437 0.9299 4.7736-4.4086 0 0 7.8936-0.29332 3.0146-5.625zm-428.26 1.3377c-4.7396 5.4561 3.1574 5.5457 3.1574 5.5457-0.23189 5.3463 4.8862 4.283 4.8862 4.283-0.31575 7.7394 6.4837 3.169 6.4837 3.169 5.1865 6.228 9.1158-0.68257 9.1158-0.68257 6.5542 2.3504 6.7983-4.677 6.7983-4.677 5.7659-2.018 3.0593-6.9613 3.0593-6.9613zm385.5 0-33.501 0.67682s-2.7066 4.9433 3.0593 6.9613c0 0 0.24406 7.0273 6.7983 4.677 0 0 3.9294 6.9106 9.1158 0.68257 0 0 6.7994 4.5704 6.4837-3.169 0 0 5.118 1.0632 4.8862-4.283 0 0 7.897-0.0896 3.1574-5.5457z" fill="#f9ee16" stroke="#000" stroke-width="1.3962"/>
  <path d="m494.68 219.86-24.318 0.22946c-3.3153 4.4959 2.4171 4.3855 2.4171 4.3855-0.0477 4.3037 3.6408 3.3306 3.6408 3.3306-0.0547 6.2297 4.7751 2.3984 4.7751 2.3984 3.9027 4.8878 6.5962-0.75905 6.5962-0.75905 4.8076 1.7386 4.827-3.9165 4.827-3.9165 4.1373-1.7554 2.0622-5.6684 2.0622-5.6684zm10.899 0s-2.0751 3.9129 2.0622 5.6684c0 0 0.0195 5.6551 4.827 3.9165 0 0 2.6935 5.6468 6.5962 0.75905 0 0 4.8298 3.8314 4.7751-2.3984 0 0 3.6886 0.97315 3.6408-3.3306 0 0 5.7324 0.11047 2.4171-4.3855zm-44.68 0.31315-24.318 0.22943c-3.3153 4.4959 2.4157 4.3855 2.4157 4.3855-0.0477 4.3037 3.6408 3.3306 3.6408 3.3306-0.0547 6.2297 4.7751 2.3984 4.7751 2.3984 3.9027 4.8878 6.5977-0.75905 6.5977-0.75905 4.8076 1.7386 4.8256-3.9165 4.8256-3.9165 4.1373-1.7554 2.0636-5.6684 2.0636-5.6684zm78.461 0s-2.0737 3.9129 2.0636 5.6683c0 0 0.0168 5.6551 4.8256 3.9165 0 0 2.695 5.6468 6.5977 0.75906 0 0 4.8298 3.8314 4.7751-2.3984 0 0 3.6886 0.97315 3.6408-3.3306 0 0 5.731 0.11047 2.4157-4.3855zm-113.78 0.0577-24.318 0.22801c-3.3153 4.4959 2.4171 4.3855 2.4171 4.3855-0.0477 4.3037 3.6408 3.332 3.6408 3.332-0.0547 6.2297 4.7751 2.3984 4.7751 2.3984 3.9027 4.8878 6.5962-0.76049 6.5962-0.76049 4.8076 1.7386 4.8256-3.9165 4.8256-3.9165 4.1373-1.7554 2.0636-5.6669 2.0636-5.6669zm149.1 0s-2.0736 3.9115 2.0636 5.6669c0 0 0.0168 5.6551 4.8256 3.9165 0-1e-5 2.6935 5.6483 6.5962 0.76049 0 0 4.8298 3.8314 4.7751-2.3984 0 0 3.6886 0.97171 3.6408-3.332 0 0 5.7325 0.11047 2.4172-4.3855zm-310.18 97.241c-5.0612 5.1591 2.8169 5.7261 2.8169 5.7261-0.5551 5.3224 4.6178 4.5716 4.6178 4.5716-0.78367 7.7061 6.2802 3.5557 6.2802 3.5557 4.8 6.5306 9.1404-0.13125 9.1404-0.13125 6.4 2.7428 7.0681-4.2556 7.0681-4.2556 5.8775-1.6653 3.4763-6.7636 3.4763-6.7636zm471.26 0-33.4 2.7028s-2.4011 5.0983 3.4763 6.7636c0 0 0.66819 6.9984 7.0682 4.2556 0 0 4.3404 6.6619 9.1403 0.13125 0 0 7.0639 4.1503 6.2802-3.5557 0 0 5.1729 0.75079 4.6178-4.5716 0 0 7.878-0.56693 2.8168-5.7261zm-430.76 2.954c-4.7396 5.4561 3.1589 5.5442 3.1589 5.5442-0.23189 5.3463 4.8862 4.2845 4.8862 4.2845-0.31573 7.7394 6.4837 3.169 6.4837 3.169 5.1865 6.228 9.1158-0.684 9.1158-0.684 6.5542 2.3504 6.7968-4.677 6.7968-4.677 5.7659-2.018 3.0607-6.9613 3.0607-6.9613zm390.25 0-33.502 0.67534s-2.7052 4.9433 3.0607 6.9613c0 0 0.24267 7.0273 6.7968 4.677 0 0 3.9293 6.912 9.1158 0.684 0 0 6.7994 4.5704 6.4837-3.169 0 0 5.118 1.0618 4.8862-4.2845 0 0 7.8985-0.0883 3.1589-5.5442z" fill="#f9ee16" stroke="#000" stroke-width="1.3962"/>
  <path d="m375.55 234c-3.8146-0.0101-8.329 1.1759-13.39 4.6452l-1.6191 23.193-3.788 27.363 5.5789 3.2007-1.1891 43.692-10.804 0.81823-28.796 218.38 38.28 2.7028 19.054-191.02-4.1921-0.0112 1.3998-26.695 5.322 0.29439 7.1504-72.261 0.39251-28.473s-5.0068-5.8079-13.399-5.83zm-22.085 53.923-8.4102 0.54836c-6.319 6.7444-5.5871 17.888 0.68545 23.629-3.5033 5.2314-2.6508 9.7383 1.4171 13.757-5.3218 3.36-3.559 10.18 0.82254 10.876l10.133-0.49209c-4.3016-0.84038-8.0634-6.7094-2.8212-10.019-4.0679-4.0184-5.1476-8.2512-0.0448-12.66-6.2726-5.7411-8.1012-18.894-1.7822-25.639z" color="#000000" fill="#db3f26" stroke-width="2.0944" style="-inkscape-stroke:none"/>
  <path d="m376.17 234.25c-3.8336-0.0176-8.5112 1.101-14.009 4.3912l-0.0462 8.4506c18.471-10.852 26.741 2.6235 26.741 2.6235l0.0953-9.8893s-4.3472-5.537-12.781-5.576zm-27.515 5.9021s-5.5157 21.271 11.202 25.907l1.925-25.124zm4.8112 47.767c-6.319 6.7444-4.4904 19.898 1.7822 25.639-5.1029 4.4088-4.0232 8.6416 0.0448 12.66-5.3218 3.36-1.3642 9.3576 3.0174 10.054l2.8327-0.18179 1.1891-43.692c-2.8615-1.6232-8.8662-4.4793-8.8662-4.4793zm23.336 99.857-16.979 170.22 12.8 0.52239 14.289-170.35z" color="#000000" fill="#762014" stroke-width="2.0944" style="-inkscape-stroke:none"/>
  <path d="m361.15 238.06-0.12265 1.7793-13.169-0.78791c-4.8086 16.273 2.6646 24.914 10.933 27.777l-2.9193 21.092-2.8876-1.023-8.791 0.61996c-6.5313 6.9711-5.8156 18.359 0.35484 24.662-2.9873 4.9099-2.1158 9.8474 1.2757 13.647-4.4944 3.7148-3.0426 10.992 1.9914 11.933l1.3608-0.0438-28.816 218.54 38.312 2.7057-3e-3 0.0279 0.94664 0.0388 1.1472 0.0807 3e-3 -0.0346 12.814 0.52527 14.47-172.44-1.0953-0.0447-9.0004-0.3449 2.0794-20.844-4.244-0.0112 1.2872-24.549 5.2744 0.29006 7.2759-73.521 0.37524-28.694c-7.6568-9.4579-20.121-7.2807-28.851-1.3798zm26.747 2.2079-0.3319 24.115c-6.3537-9.3249-15.761-11.207-25.825-4.6788l1.4272-20.429c7.8381-4.9747 17.531-6.4929 24.73 0.99317zm-38.375 0.98273 11.132 0.65948-1.723 22.58c-9.4813-3.7225-11.508-13.905-9.4088-23.239zm37.96 27.254-7.0191 70.952-5.3725-0.30014-1.5109 28.847 4.1401 0.0112-18.841 188.86-36.153-2.5528 28.541-216.43 10.898-0.80222 1.2324-45.285-5.5082-3.1644 3.6206-26.163c13.138-7.0128 18.496-4.7627 25.972 6.0325zm-36.277 20.607c-4.3893 7.9209-2.9235 18.256 2.7562 24.383-4.28 4.2221-3.4259 8.9714 0.0274 12.752-3.2088 2.6363-2.5999 6.5814 0.19193 9.1259l-6.0767 0.29294c-4.6108-1.7572-3.1393-7.1214-0.38674-8.934l1.1184-0.70279-0.93799-0.92789c-3.91-3.7666-3.7426-8.681-1.2872-12.425l0.50074-0.75182-0.65948-0.60608c-5.7252-5.2401-6.4454-15.522-0.80667-21.844zm2.6668 0.18319 7.3928 3.7361-1.14 42.057-1.8587 0.0894c-4.178-1.2178-5.9801-5.7749-2.4114-8.0797l1.1126-0.70279-0.93799-0.92789c-4.0602-3.7886-3.3627-8.2398-0.0981-11.12l0.8947-0.76917-0.87306-0.79655c-5.2596-6.7124-6.869-17.038-2.0809-23.486zm23.875 99.56 8.0278 0.31027-14.109 168.26-10.69-0.43725z" color="#000000" stroke-width="2.7925" style="-inkscape-stroke:none"/>
  <path d="m624.7 234c3.8146-0.0101 8.329 1.1759 13.39 4.6452l1.6191 23.193 3.788 27.363-5.5789 3.2007 1.1891 43.692 10.804 0.81822 28.796 218.38-38.28 2.7028-19.054-191.02 4.1921-0.0112-1.3998-26.695-5.322 0.29438-7.1504-72.261-0.39251-28.473s5.0068-5.8079 13.399-5.83zm22.085 53.923 8.4102 0.54836c6.319 6.7444 5.5871 17.888-0.68545 23.629 3.5033 5.2314 2.6508 9.7383-1.4171 13.757 5.3218 3.36 3.559 10.18-0.82256 10.876l-10.133-0.49209c4.3015-0.84038 8.0634-6.7094 2.8212-10.019 4.0679-4.0184 5.1476-8.2512 0.0447-12.66 6.2726-5.7411 8.1011-18.894 1.7822-25.639z" color="#000000" fill="#db3f26" stroke-width="2.0944" style="-inkscape-stroke:none"/>
  <path d="m624.08 234.25c3.8336-0.0176 8.5112 1.1011 14.009 4.3912l0.0461 8.4506c-18.471-10.852-26.741 2.6235-26.741 2.6235l-0.0952-9.8893s4.3472-5.537 12.781-5.576zm27.515 5.9021s5.5157 21.271-11.202 25.907l-1.925-25.124zm-4.8112 47.767c6.319 6.7444 4.4904 19.898-1.7822 25.639 5.1029 4.4088 4.0232 8.6416-0.0447 12.66 5.3218 3.36 1.3641 9.3576-3.0175 10.054l-2.8327-0.18179-1.1891-43.692c2.8615-1.6232 8.8662-4.4793 8.8662-4.4793zm-23.336 99.857 16.979 170.22-12.8 0.5224-14.289-170.35z" color="#000000" fill="#762014" stroke-width="2.0944" style="-inkscape-stroke:none"/>
  <path d="m639.1 238.06 0.12259 1.7793 13.169-0.78791c4.8086 16.273-2.6646 24.914-10.933 27.778l2.9193 21.092 2.8876-1.023 8.791 0.61996c6.5313 6.9711 5.8156 18.359-0.35484 24.662 2.9873 4.9099 2.1158 9.8474-1.2757 13.647 4.4944 3.7148 3.0426 10.992-1.9914 11.933l-1.3608-0.0438 28.816 218.54-38.312 2.7057 3e-3 0.0279-0.94665 0.0388-1.1472 0.0807-3e-3 -0.0346-12.814 0.52527-14.47-172.44 1.0953-0.0447 9.0004-0.34491-2.0794-20.844 4.244-0.0112-1.2872-24.549-5.2744 0.29005-7.2759-73.521-0.37526-28.694c7.6568-9.4579 20.121-7.2807 28.851-1.3798zm-26.747 2.2079 0.33192 24.115c6.3536-9.3249 15.761-11.207 25.825-4.6788l-1.4272-20.429c-7.8381-4.9747-17.531-6.4929-24.73 0.99316zm38.375 0.98273-11.132 0.65948 1.723 22.58c9.4813-3.7225 11.508-13.905 9.4088-23.239zm-37.96 27.254 7.019 70.952 5.3725-0.30013 1.5109 28.847-4.1401 0.0112 18.841 188.86 36.153-2.5528-28.541-216.43-10.898-0.80223-1.2324-45.285 5.5082-3.1644-3.6206-26.163c-13.138-7.0128-18.496-4.7627-25.972 6.0325zm36.277 20.607c4.3893 7.9209 2.9235 18.256-2.7562 24.383 4.28 4.2221 3.4259 8.9714-0.0279 12.752 3.2088 2.6362 2.5999 6.5814-0.19184 9.1259l6.0767 0.29293c4.6108-1.7572 3.1393-7.1214 0.38676-8.934l-1.1184-0.70278 0.93797-0.92789c3.91-3.7667 3.7426-8.6811 1.2872-12.425l-0.50075-0.75182 0.65948-0.60608c5.7252-5.2401 6.4454-15.522 0.80667-21.844zm-2.6668 0.18319-7.3928 3.7361 1.14 42.057 1.8587 0.0894c4.178-1.2178 5.9801-5.7749 2.4113-8.0797l-1.1126-0.70279 0.93797-0.92789c4.0602-3.7886 3.3628-8.2398 0.098-11.12l-0.89469-0.76916 0.87304-0.79656c5.2596-6.7124 6.8691-17.038 2.0809-23.486zm-23.875 99.56-8.0278 0.31027 14.109 168.26 10.69-0.43725z" color="#000000" stroke-width="2.7925" style="-inkscape-stroke:none"/>
  <path d="m506.29 158.7c9.404 0.19592 7.3216-5.8419 14.077-7.4231-3.2012 10.191-2.2975 10.688-9.7666 15.259 9.3387 0.78367 6.9214-5.3546 15.542-3.9179-5.7781 4.5398-3.7872 7.9343-11.885 11.461 4.5714 2.1551 7.2483-2.0242 10.742-0.94665-5.6107 4.1749-2.1714 7.3238-9.5444 7.4534 0 0 1.9367 4.8885 7.553 3.713-9.404 16.326-22.466 3.0044-22.466 3.0044h-0.45602s-13.062 13.322-22.466-3.0044c5.6163 1.1755 7.553-3.713 7.553-3.713-7.373-0.12965-3.9337-3.2785-9.5444-7.4534 3.4938-1.0775 6.1708 3.1017 10.742 0.94665-8.0979-3.5265-6.107-6.9211-11.885-11.461 8.6204-1.4367 6.2031 4.7016 15.542 3.9179-7.4692-4.5706-6.5654-5.0675-9.7666-15.259 6.7554 1.5812 4.673 7.619 14.077 7.4231 0.55853-6.7888 4.448-8.1259 6.139-13.045 2.1171 4.9572 6.0592 9.2533 5.8124 13.045z" color="#000000" fill="#fdcf09" stroke-width="1.6755" style="-inkscape-stroke:none"/>
  <path d="m500.4 143.33 0.8543 2.003c1.6978 4.3553 5.4135 8.062 5.8228 12.493 6.6432 0.042 8.2694-6.1327 13.106-7.3567l1.4301-0.33479-0.44015 1.4012c-1.5926 5.0705-2.1463 7.7527-3.3522 9.8965-0.89493 1.591-2.4251 2.8548-4.5355 4.2931 2.4771-0.19399 3.5887-1.0819 4.853-2.0506 4.3424-2.3528 5.7811-2.2716 10.021-1.5628-2.7736 1.8394-4.8358 4.7404-6.3855 7.0883-1.0435 1.5668-2.4655 3.128-5.182 4.6351 4.4302-0.40614 5.9596-2.3312 10.24-1.0087-2.4174 1.4411-4.0234 3.8721-5.2109 5.9743-1.1326 1.8442-2.8494 2.3322-4.7188 2.5138 1.8192 2.5338 5.7829 2.202 7.7723 1.788l-0.93365 1.622c-5.374 9.3312-15.53 11.197-23.419 3.4836-9.5725 7.0489-17.217 7.0599-23.419-3.4836l-0.93364-1.622c3.2591 0.40485 5.981 0.61663 7.7723-1.788-1.9849-0.13608-3.7434-0.8484-4.7188-2.5138-1.8299-3.1443-2.5799-4.0168-5.2109-5.9743 3.6516-1.9209 7.3499 1.0839 10.24 1.0087-2.7165-1.5071-4.1385-3.0683-5.182-4.6351-2.2634-3.4247-3.497-4.82-6.3856-7.0883 3.4892-0.77957 7.3456-0.46786 10.021 1.5628 1.2643 0.96873 2.3759 1.8566 4.853 2.0506-2.1104-1.4383-3.6406-2.7021-4.5355-4.2931-1.2059-2.1438-1.7596-4.826-3.3522-9.8965l-0.44016-1.4012 1.4301 0.33479c5.8765 2.284 7.6544 7.2142 13.177 7.3611 0.30749-5.0426 4.6678-8.548 6.0565-12.441zm0.0852 4.1762c-2.1195 4.2562-5.016 7.7626-5.3667 12.024-3.4655 0.116-7.2964-0.9647-9.4304-3.3103-1.2727-1.4283-2.182-2.7465-4.1373-3.5932 1.1857 3.9058 1.8538 6.4262 2.7303 7.9845 2.8624 3.5231 4.7859 4.3587 8.3726 6.5529-6.2143 2.4002-11.837-4.0512-16.33-3.8587 1.8527 1.8205 2.9818 3.5297 3.9381 4.9656 2.908 3.4244 4.5181 4.2067 8.1446 5.7852-4.0358 2.1262-6.9755 0.77088-10.586-0.0966 4.1272 4.6773 3.6851 5.7084 8.7557 5.8299 0.93756 4.1469 4.7418 4.8792 8.0927 4.9858-3.0659-3.8201-3.6132-8.1165-1.5037-12.071 2.2449-3.3556 6.4334-8.7232 7.2485-13.527 1.207 4.7282 5.1629 9.747 7.247 13.527 2.4865 4.4564 1.0327 8.7015-1.5037 12.071 3.519 0.0142 7.3699-1.4633 8.0786-4.9987 4.8192 0.60423 6.367-3.3503 8.5848-5.8169-3.6614 1.4541-7.7482 1.4172-10.586 0.0966 3.178-1.2655 6.4351-3.2485 8.1446-5.7852 0.95635-1.4359 2.0854-3.1451 3.9381-4.9656-2.7004-0.14845-3.7905 0.65029-5.1604 1.6999-4.6737 2.6527-6.3507 2.5654-11.169 2.1588 2.9317-1.9283 6.8053-3.8533 8.3732-6.5531 0.87654-1.5582 1.5446-4.0787 2.7303-7.9845-1.9553 0.84669-2.8645 2.1649-4.1372 3.5932-3.759 2.9004-5.7845 3.3819-9.5502 3.3075 0.14074-4.5695-3.1822-8.6596-4.9179-12.021zm-0.0405 17.982c-1.6181 0.0106-3.2469 2.6917-5.8011 8.0119-2.5057 4.293-0.21474 8.2105 2.1978 11.175 1.1015-0.0612 3.1578-0.80587 3.5499-1.1602 0 0 2.2048 1.061 3.5947 1.1602 3.1483-3.5639 4.2292-7.3724 2.1978-11.175-2.5138-5.3631-4.121-8.0226-5.739-8.0119zm-14.996 16.367c-1.385 2.152-4.0539 3.3924-6.172 3.4302 5.3116 7.9787 13.429 7.5882 20.217 1.4387h1.6539c8.2029 5.6571 14.079 7.5938 20.217-1.4387-2.6728-0.13318-4.6094-1.2908-6.0623-3.2613-2.9561 3.8334-10.975 6.7387-14.885 2.8039-3.9199 4.0266-11.811 1.4146-14.969-2.9727z" color="#000000" stroke-width=".73885" style="-inkscape-stroke:none"/>
  <text transform="matrix(.73885 0 0 .73885 216.45 151.47)" display="none" font-family="Chibrush" font-size="74.667px" letter-spacing="-1px" style="line-height:1.25;shape-inside:url(#rect37492);white-space:pre" xml:space="preserve"/>
  <path d="m417.66 285.79q0.77234 3.31 1.0482 7.2269 0.27584 3.8617 0.27584 8.9923 0 3.8617-0.60684 7.6131-0.55168 3.7514-1.5999 8.3854 0.38617 0.22067 0.82751 0.22067t1.0482-0.331q1.1034-0.66201 2.2067-0.82751 1.2137-0.38618 2.7584-0.38618 0.27584 0 0.71718 0.0552 0.44133 0 0.99301 0.0552 2.317 0.331 4.1375 1.655 0.33101 0.82751 0.33101 1.4343 0 1.0482-1.1585 1.324-1.8205 0.331-2.8135 1.324-1.2688 0.27585-2.1515 0.27585-1.7102 0-2.979-0.71718l-4.3582-2.2619q-1.5447-4.0272-2.4274-8.3303-0.88267-4.3582-0.88267-8.8819 0-5.2409 0.38616-9.5439 0.44135-4.3582 1.5447-8.1648 0.44134-0.49651 0.77234-0.49651 0.27584 0 0.66201 0.27584l1.2688 1.1034z" stroke-width=".73885" style="white-space:pre"/>
  <path d="m446.22 318.28q0.331-0.11034 0.4965-0.11034 0.44135 0 0.82751 0.55168 0.38618 0.55167 0.93785 0.88268 0.1655 0.60683-0.1655 1.1033l-0.71718 0.77235q-2.5929 0-4.1927-0.33101-1.5998-0.38617-3.0342-1.5447-2.5929-2.5929-3.6962-6.1236-0.49651-1.655-0.82751-3.641-0.27583-1.986-0.27583-3.641 0-3.0894 0.1655-5.3512 0.22067-2.2618 0.71718-5.0202l1.655-9.7094 0.44134-0.93784q1.324 3.4204 2.0964 6.9511 0.77234 3.4755 0.77234 6.9511l0.71718 14.178q0.99301 3.31 4.0824 5.0202zm4.5789 3.641q-0.82751-0.331-0.99301-1.2688 0-0.88268 0.4965-1.4895 3.3652-1.1585 4.6341-3.641 1.2688-2.5377 1.5998-5.8477 0.0552-0.4965 0.11034-1.655 0.0552-1.2137 0.0552-3.0894v-1.655q0-2.0412 0.0552-3.3652 0.11034-1.324 0.38617-2.4825l2.7032-12.247 1.9309 9.6543q0.4965 2.4274 0.71717 5.0202 0.22067 2.5377 0.22067 5.2961 0 1.7654-0.22067 3.4204-0.1655 1.5998-0.662 3.5307-0.66201 3.4204-2.4274 6.1787-1.5999 1.9308-3.9721 2.7584-2.0412 0.60685-4.634 0.88268z" stroke-width=".73885" style="white-space:pre"/>
  <path d="m491.38 300.52q0-6.8959 1.1585-13.626 0.44134-0.22067 0.82751-0.22067 0.66201 0 0.77234 0.93784 0 1.324 0.66201 1.986l0.71717 17.267 0.66202 13.957q0 1.1033-2.2067 1.5998-2.2067 0.331-2.8135 0.71718-4.0824-3.0342-6.8959-6.8959-2.4825-3.5307-4.9099-7.9993l-4.2479-8.3303q-1.9309-3.972-4.7996-8.0544l-0.88268 0.93784q0 0.88268-0.11034 1.324l-0.0552 1.2688q0 2.0412-0.22066 6.4546-0.22067 4.4134-0.22067 6.8959 0 7.0614-1.0482 13.682-0.0552 0.22067-0.0552 0.44133-0.0552 0.0552-0.11034 0.0552-0.1655-0.33101-0.22066-0.55168l-0.49651-2.9239-0.44134-3.9169-0.27583-3.1445-0.93785-9.5991q0-1.5998-0.22067-4.8547t-0.22067-5.0202q0-2.2067 0-3.5307 0-1.324 0.11034-2.4825 0-1.2688 1.324-1.7654 1.324-0.55168 2.7584-0.55168 1.4344 0.1655 2.7032 1.4344 6.5649 5.9581 9.7094 13.792 3.1997 7.7786 8.8819 14.288 0.49651-3.1445 0.77234-6.8408 0.331-3.6962 0.331-6.7304z" stroke-width=".73885" style="white-space:pre"/>
  <path d="m525.12 305.43 1.8205 1.3792q1.2137 3.9169 1.986 7.8889 0.82751 3.9169 2.979 7.5028-0.38617 0.77234-1.324 0.93785-0.82751 0.11033-1.3792-0.44135-1.655-0.71717-2.5929-2.4825-0.44133-0.93784-0.8275-1.7654-0.33101-0.82751-0.66201-1.7654-0.33101-0.99301-0.66201-1.7654-0.331-0.82751-0.77234-1.5998-0.77234-1.4895-2.3722-1.8205-0.82751-0.11034-1.3792-0.16551-0.55167-0.0552-1.5447-0.0552-1.5999 0-2.648 0.11033-0.99301 0.11034-1.5447 0.11034-1.655 0.1655-3.9169 0.22067-2.2619 0.0552-3.7514 0.0552l-3.3652 6.0684q-1.5447 2.9239-4.7996 4.8547 1.655-3.5859 2.4825-7.5028 0.88268-3.972 2.0412-7.5028l2.2619-1.324q0.1655-0.93784 0.44134-2.648 0.27583-1.7102 0.55167-4.2479 0.27584-2.5929 1.1033-5.7374 0.82751-3.1445 2.4825-5.7374 1.655-2.648 4.9099-4.303 2.8687 0.27583 4.6892 2.9239 1.8205 2.5929 2.8687 5.9581 1.1034 3.31 1.8205 7.1718zm-4.0824 0-3.3652-6.7856q-1.655-3.4755-3.4755-6.7856l-3.4756 6.9511q-1.7102 3.4755-2.8135 7.0614 1.0482 0 3.2549 0.0552 2.2067 0.0552 3.3652 0.0552 1.8757 0 3.4204-0.11033 1.5998-0.11033 3.0894-0.44133z" stroke-width=".73885" style="white-space:pre"/>
  <path d="m556.98 303.55q-1.1585 1.9309-2.979 2.3722-1.8205 0.331-3.31 1.2137 5.8477 7.2269 8.9923 15.888-0.4965 1.0482-1.2688 1.0482-0.11034 0-0.66201-0.22067-1.1034-0.66201-2.0964-0.82751-5.0754-2.7584-6.2339-7.8338-0.49651-2.5929-1.2688-4.7996-0.77234-2.2067-1.986-4.5789 0.38617-0.38617 0.82751-0.38617 0.331 0 0.66201 0.16551l1.655 0.662q4.1375-0.99301 6.3442-4.5237 1.1033-1.655 1.1033-3.641 0-0.88268-0.11033-1.324-0.38617-2.5929-1.655-4.2479-1.8757-2.317-6.0684-3.5307-2.4825-0.66201-5.4616-0.66201-2.8687 0-3.1997 1.5998-0.27583 1.5447-0.4965 3.2549-0.22067 1.655-0.44134 3.8065l-0.1655 7.0614 0.0552 8.9923q0 2.4274-0.27583 4.5237-0.27584 2.0412-0.99301 3.9169-0.0552 0.38616-0.38618 0.38616-0.27583 0-0.55166-0.22066-0.66201-0.49651-0.88268-1.1034-0.49651-1.986-0.88268-4.303-0.33101-2.3722-0.33101-4.3582l-0.38617-8.9371-0.22067-8.1648 0.0552-8.2751q0-0.88268-0.11034-1.4344 0-0.93785 0.11034-1.4344l0.60684-0.11033 1.0482-0.0552 6.1236-0.27583q1.8757 0 3.1997 0.0552 1.3792 0.0552 3.1997 0.33101 1.8205 0.27584 3.9169 0.93785 2.1515 0.60683 3.6962 2.0412 1.3792 1.2688 2.4825 3.0342 1.1585 1.7102 1.4895 4.3031 0.0552 0.55167 0.0552 0.99301 0.0552 0.38617 0.0552 0.66201 0 1.7654-0.55167 3.5859-0.66201 2.7032-2.7032 4.4134z" stroke-width=".73885" style="white-space:pre"/>
  <path d="m584.38 290.81q-0.0552 0.22067-0.0552 0.38617-0.22067 0.0552-0.93784-0.93785l-1.8205-2.3722q-1.7654-1.7654-3.972-2.0412-1.4344 0-2.7032 0.49651-1.2137 0.4965-2.2619 1.655-1.7654 1.9308-1.7654 4.0272 0 0.33101 0.11034 0.99301 0.55167 3.4204 4.5237 4.4686 4.0272 1.0482 6.6201 2.8687 3.31 2.4825 4.8547 5.2409 0.93785 1.5447 0.93785 3.8065 0 1.3792-0.33101 3.0342-0.99301 4.4686-5.0202 7.8338-1.655 1.324-3.31 1.324-0.99301 0-2.0412-0.44134-1.0482-0.44134-1.8757-0.44134-1.4895 0-2.7584 1.3792-4.0824 0-5.9029-3.641-0.55168-0.99301-0.55168-1.8757 0-0.4965 0.1655-1.1033l0.88268-2.9239q2.3722 0 4.0272 2.5929 1.655 2.5929 3.3652 4.0824 0.71717 0.71718 1.5447 0.71718 0.49651 0 0.93785-0.22067 1.8205-0.66201 3.5307-2.8687 1.7102-2.2067 1.986-4.303 0-2.979-0.71718-4.6341t-2.4274-2.2067q-3.5859-1.1033-7.6131-3.6962-1.9308-1.1034-3.5307-2.5929-1.5998-1.5447-2.317-3.6962-0.38617-1.2688-0.38617-2.4274 0-1.7102 0.662-3.8617 0.71718-2.648 3.31-4.5237 2.648-1.8757 5.7374-2.317 2.3722 0 3.7514 0.44134 1.4343 0.38617 2.4825 1.655 1.9309 2.4274 2.8687 6.1236z" stroke-width=".73885" style="white-space:pre"/>
  <path d="m498.34 422.98c-6.7179 1.9637-13.778 21.761-21.323 25.998 4.9609 1.757 16.031 0.47313 16.031 0.47313 0.93018 9.095-0.40752 23.112-24.963 44.452 13.436 0.82682 7.0723-4.0942 25.26 3.2391 21.678-14.356 12.21-49.284 12.21-49.284l18.662 0.13167s-19.055-17.466-25.877-25.011z" fill="#fff" stroke="#000" stroke-width="3"/>
 </g>
 <path d="m96.994 364.44c28.26 0.02 52.985 19.015 60.286 46.316 9.754-9.728 22.968-15.192 36.744-15.194 27.772 0.018 50.636 21.838 51.951 49.579 0.972-0.093 1.947-0.139 2.924-0.14 10.848 8e-3 20.915 5.647 26.589 14.893 5.932-7.178 14.758-11.335 24.069-11.335 13.735 2e-3 25.855 8.977 29.863 22.114 9.489-5.477 20.253-8.361 31.209-8.362 29.7 0.018 55.278 20.951 61.17 50.061 3.936-1.716 8.183-2.601 12.476-2.602 13.09 9e-3 24.786 8.181 29.295 20.47 7.712-9.052 19.004-14.267 30.896-14.268 7.099 0 14.074 1.863 20.228 5.402 3.555-13.793 15.993-23.431 30.236-23.432 4.715 0 9.368 1.07 13.611 3.126-0.781-3.596-1.178-7.265-1.184-10.945 0-28.742 23.3-52.043 52.042-52.043 8.676 0.012 17.211 2.192 24.829 6.343 2.03-15.551 15.28-27.184 30.963-27.184 4.755 2e-3 9.446 1.09 13.717 3.181 7.212-17.578 24.33-29.056 43.33-29.057 23.622 0.015 43.536 17.617 46.45 41.059 4.666-2.618 9.926-3.993 15.277-3.994 13.697 0 25.796 8.928 29.836 22.016 7.273-4.358 15.593-6.66 24.073-6.66 6.24 0.01 12.415 1.267 18.163 3.697 4.463-24.786 26.033-42.82 51.217-42.821 6.963 0.012 13.853 1.42 20.262 4.142 5.292-10.569 16.099-17.244 27.92-17.244 5.239 6e-3 10.391 1.33 14.984 3.85 8.847-11.769 22.714-18.692 37.44-18.693 10.97 0 20.92 3.928 28.91 10.245v410.19h-1057.5v-396.75c6.0416-2.454 12.62-3.868 19.542-3.868 14.12 0.01 27.63 5.758 37.43 15.925 6.6864-28.147 31.829-48.017 60.759-48.017z" fill="#fff" filter="url(#a)" style="paint-order:normal">
  <animateTransform attributeType="xml" attributeName="transform" type="translate" dur="20s" values="0,0; 0,30; 0,0; 0,-30;0,0" repeatCount="indefinite"/>
 </path>
</svg>
