<?xml version="1.0" encoding="UTF-8"?>
<svg width="70" height="70" version="1.1" viewBox="0 0 70 70" xmlns="http://www.w3.org/2000/svg">
 <g transform="matrix(.22809 0 0 .22809 3.9978 6.3545)" data-name="Layer 2">
  <g fill="#0033ad" data-name="Layer 1">
   <path d="m74.49 124.64a18.34 18.34 0 0 0 17.24 19.36h1a18.3 18.3 0 1 0-18.29-19.35z"/>
   <path d="m6.25 120a5.91 5.91 0 1 0 5.57 6.24 5.9 5.9 0 0 0-5.57-6.24z"/>
   <path d="m73.33 18.43a5.92 5.92 0 1 0-8-2.62 5.93 5.93 0 0 0 8 2.62z"/>
   <path d="m91.9 50.81a9.14 9.14 0 1 0-12.28-4.05 9.14 9.14 0 0 0 12.28 4.05z"/>
   <path d="m29.41 73.08a7.53 7.53 0 1 0-2.16-10.42 7.53 7.53 0 0 0 2.16 10.42z"/>
   <path d="m40.54 116.67a9.14 9.14 0 1 0 8.61 9.65 9.15 9.15 0 0 0-8.61-9.65z"/>
   <path d="m30.41 178.12a7.53 7.53 0 1 0 10.12 3.33 7.53 7.53 0 0 0-10.12-3.33z"/>
   <path d="m65.94 97.78a10.76 10.76 0 1 0-3.1-14.9 10.75 10.75 0 0 0 3.1 14.9z"/>
   <path d="m178.66 50.09a9.15 9.15 0 1 0-2.66-12.67 9.14 9.14 0 0 0 2.66 12.67z"/>
   <path d="m197.42 17.81a5.92 5.92 0 1 0-1.71-8.19 5.92 5.92 0 0 0 1.71 8.19z"/>
   <path d="m180.1 107.22a18.305 18.305 0 1 0-2.1 36.55h1.06a18.3 18.3 0 0 0 13.64-30.49 18.08 18.08 0 0 0-12.6-6.06z"/>
   <path d="m97.91 96.51a18.23 18.23 0 0 0 16.36 10.07 18.31 18.31 0 0 0 16.34-26.58 18.24 18.24 0 0 0-16.36-10 18.31 18.31 0 0 0-16.34 26.51z"/>
   <path d="m241.41 73.06a7.53 7.53 0 1 0-10.12-3.34 7.54 7.54 0 0 0 10.12 3.34z"/>
   <path d="m195 78.89a10.76 10.76 0 1 0 14.45 4.77 10.75 10.75 0 0 0-14.45-4.77z"/>
   <path d="m135.22 15.05a7.53 7.53 0 1 0-7.09-7.94 7.53 7.53 0 0 0 7.09 7.94z"/>
   <path d="m135.14 62.44a10.76 10.76 0 1 0-10.14-11.36 10.77 10.77 0 0 0 10.14 11.36z"/>
   <path d="m76.84 172.28a10.76 10.76 0 1 0-14.45-4.76 10.76 10.76 0 0 0 14.45 4.76z"/>
   <path d="m142.09 78.14a18.3 18.3 0 1 0 15.33-8.27 18.32 18.32 0 0 0-15.33 8.27z"/>
   <path d="m173.91 154.67a18.3 18.3 0 1 0-16.34 26.54 18.5 18.5 0 0 0 8.24-2 18.31 18.31 0 0 0 8.1-24.54z"/>
   <path d="m205.89 153.39a10.76 10.76 0 1 0 3.09 14.9 10.78 10.78 0 0 0-3.09-14.9z"/>
   <path d="m240.93 125.9a9.14 9.14 0 1 0-9.65 8.61 9.15 9.15 0 0 0 9.65-8.61z"/>
   <path d="m266.25 119.39a5.92 5.92 0 1 0 5.57 6.25 5.93 5.93 0 0 0-5.57-6.25z"/>
   <path d="m242.41 178.09a7.53 7.53 0 1 0 2.17 10.43 7.53 7.53 0 0 0-2.17-10.43z"/>
   <path d="m74.41 233.36a5.92 5.92 0 1 0 1.7 8.2 5.92 5.92 0 0 0-1.7-8.2z"/>
   <path d="m198.49 232.74a5.92 5.92 0 1 0 7.95 2.62 5.91 5.91 0 0 0-7.95-2.62z"/>
   <path d="m129.73 173a18.3 18.3 0 1 0-15.32 8.27 18.21 18.21 0 0 0 15.32-8.27z"/>
   <path d="m93.16 201.09a9.14 9.14 0 1 0 2.64 12.66 9.15 9.15 0 0 0-2.64-12.66z"/>
   <path d="m135.83 236.12a7.53 7.53 0 1 0 7.09 7.95 7.53 7.53 0 0 0-7.09-7.95z"/>
   <path d="m135.91 188.74a10.76 10.76 0 1 0 10.09 11.35 10.75 10.75 0 0 0-10.09-11.35z"/>
   <path d="m179.92 200.36a9.15 9.15 0 1 0 12.29 4 9.13 9.13 0 0 0-12.29-4z"/>
  </g>
 </g>
</svg>
