<?xml version="1.0" encoding="UTF-8"?>
<svg width="70" height="70" fill="none" version="1.1" viewBox="0 0 70 70" xmlns="http://www.w3.org/2000/svg">
 <rect x="4" y="4" width="62" height="62" rx="31" fill="url(#a)" stroke-width=".88571"/>
 <g transform="matrix(.88571 0 0 .88571 4 4)" clip-path="url(#b)" fill="#fff">
  <path d="m47.514 21.907c1.3999 0 2.5349-1.1559 2.5349-2.5817 0-1.4259-1.135-2.5817-2.5349-2.5817-1.4 0-2.5349 1.1558-2.5349 2.5817 0 1.4258 1.1349 2.5817 2.5349 2.5817z"/>
  <path d="m47.514 53.257c1.3999 0 2.5349-1.1559 2.5349-2.5817 0-1.4259-1.135-2.5818-2.5349-2.5818-1.4 0-2.5349 1.1559-2.5349 2.5818 0 1.4258 1.1349 2.5817 2.5349 2.5817z"/>
  <path d="m36.197 57.037c1.4 0 2.5349-1.1559 2.5349-2.5817 0-1.4259-1.1349-2.5818-2.5349-2.5818-1.3999 0-2.5348 1.1559-2.5348 2.5818 0 1.4258 1.1349 2.5817 2.5348 2.5817z"/>
  <path d="m24.971 53.257c1.4 0 2.5349-1.1559 2.5349-2.5817 0-1.4259-1.1349-2.5818-2.5349-2.5818s-2.5349 1.1559-2.5349 2.5818c0 1.4258 1.1349 2.5817 2.5349 2.5817z"/>
  <path d="m18.09 43.759c1.4 0 2.5349-1.1559 2.5349-2.5817 0-1.4259-1.1349-2.5818-2.5349-2.5818-1.3999 0-2.5349 1.1559-2.5349 2.5818 0 1.4258 1.135 2.5817 2.5349 2.5817z"/>
  <path d="m18.09 31.404c1.4 0 2.5349-1.1559 2.5349-2.5817 0-1.4259-1.1349-2.5817-2.5349-2.5817-1.3999 0-2.5349 1.1558-2.5349 2.5817 0 1.4258 1.135 2.5817 2.5349 2.5817z"/>
  <path d="m24.971 21.907c1.4 0 2.5349-1.1559 2.5349-2.5817 0-1.4259-1.1349-2.5817-2.5349-2.5817s-2.5349 1.1558-2.5349 2.5817c0 1.4258 1.1349 2.5817 2.5349 2.5817z"/>
  <path d="m36.197 18.126c1.4 0 2.5349-1.1559 2.5349-2.5818 0-1.4258-1.1349-2.5817-2.5349-2.5817-1.3999 0-2.5348 1.1559-2.5348 2.5817 0 1.4259 1.1349 2.5818 2.5348 2.5818z"/>
  <path d="m36.197 24.212c0.75 0 1.3579-0.6193 1.3579-1.3831 0-0.7639-0.6079-1.3831-1.3579-1.3831s-1.358 0.6192-1.358 1.3831c0 0.7638 0.608 1.3831 1.358 1.3831z"/>
  <path d="m42.263 25.872c0.7499 0 1.3579-0.6192 1.3579-1.3831 0-0.7638-0.608-1.383-1.3579-1.383-0.75 0-1.358 0.6192-1.358 1.383 0 0.7639 0.608 1.3831 1.358 1.3831z"/>
  <path d="m42.263 46.895c0.7499 0 1.3579-0.6193 1.3579-1.3831 0-0.7639-0.608-1.3831-1.3579-1.3831-0.75 0-1.358 0.6192-1.358 1.3831 0 0.7638 0.608 1.3831 1.358 1.3831z"/>
  <path d="m36.197 48.554c0.75 0 1.3579-0.6192 1.3579-1.3831s-0.6079-1.3831-1.3579-1.3831-1.358 0.6192-1.358 1.3831 0.608 1.3831 1.358 1.3831z"/>
  <path d="m30.222 46.895c0.75 0 1.358-0.6193 1.358-1.3831 0-0.7639-0.608-1.3831-1.358-1.3831-0.7499 0-1.3579 0.6192-1.3579 1.3831 0 0.7638 0.608 1.3831 1.3579 1.3831z"/>
  <path d="m25.876 42.561c0.7499 0 1.3579-0.6192 1.3579-1.3831 0-0.7638-0.608-1.383-1.3579-1.383-0.75 0-1.358 0.6192-1.358 1.383 0 0.7639 0.608 1.3831 1.358 1.3831z"/>
  <path d="m24.246 36.383c0.75 0 1.358-0.6192 1.358-1.3831 0-0.7638-0.608-1.383-1.358-1.383-0.7499 0-1.3579 0.6192-1.3579 1.383 0 0.7639 0.608 1.3831 1.3579 1.3831z"/>
  <path d="m25.876 30.205c0.7499 0 1.3579-0.6193 1.3579-1.3831 0-0.7639-0.608-1.3831-1.3579-1.3831-0.75 0-1.358 0.6192-1.358 1.3831 0 0.7638 0.608 1.3831 1.358 1.3831z"/>
  <path d="m30.222 25.872c0.75 0 1.358-0.6192 1.358-1.3831 0-0.7638-0.608-1.383-1.358-1.383-0.7499 0-1.3579 0.6192-1.3579 1.383 0 0.7639 0.608 1.3831 1.3579 1.3831z"/>
  <path d="m36.197 29.007c0.4 0 0.7242-0.3302 0.7242-0.7376s-0.3242-0.7376-0.7242-0.7376-0.7243 0.3302-0.7243 0.7376 0.3243 0.7376 0.7243 0.7376z"/>
  <path d="m39.547 29.929c0.4 0 0.7243-0.3302 0.7243-0.7376s-0.3243-0.7376-0.7243-0.7376-0.7242 0.3302-0.7242 0.7376 0.3242 0.7376 0.7242 0.7376z"/>
  <path d="m39.547 41.546c0.4 0 0.7243-0.3302 0.7243-0.7376s-0.3243-0.7377-0.7243-0.7377-0.7242 0.3303-0.7242 0.7377 0.3242 0.7376 0.7242 0.7376z"/>
  <path d="m36.197 42.468c0.4 0 0.7242-0.3302 0.7242-0.7376s-0.3242-0.7377-0.7242-0.7377-0.7243 0.3303-0.7243 0.7377 0.3243 0.7376 0.7243 0.7376z"/>
  <path d="m32.847 41.546c0.4 0 0.7243-0.3302 0.7243-0.7376s-0.3243-0.7377-0.7243-0.7377-0.7242 0.3303-0.7242 0.7377 0.3242 0.7376 0.7242 0.7376z"/>
  <path d="m30.493 39.149c0.4 0 0.7243-0.3302 0.7243-0.7376s-0.3243-0.7376-0.7243-0.7376-0.7242 0.3302-0.7242 0.7376 0.3242 0.7376 0.7242 0.7376z"/>
  <path d="m29.588 35.737c0.4 0 0.7243-0.3303 0.7243-0.7377s-0.3243-0.7376-0.7243-0.7376-0.7242 0.3302-0.7242 0.7376 0.3242 0.7377 0.7242 0.7377z"/>
  <path d="m30.493 32.326c0.4 0 0.7243-0.3303 0.7243-0.7377s-0.3243-0.7376-0.7243-0.7376-0.7242 0.3302-0.7242 0.7376 0.3242 0.7377 0.7242 0.7377z"/>
  <path d="m32.847 29.929c0.4 0 0.7243-0.3302 0.7243-0.7376s-0.3243-0.7376-0.7243-0.7376-0.7242 0.3302-0.7242 0.7376 0.3242 0.7376 0.7242 0.7376z"/>
 </g>
 <defs>
  <linearGradient id="a" x2="70" y2="70" gradientTransform="matrix(.88571 0 0 .88571 4 4)" gradientUnits="userSpaceOnUse">
   <stop stop-color="#FF55A3" offset="0"/>
   <stop stop-color="#633ABB" offset="1"/>
  </linearGradient>
  <clipPath id="b">
   <rect transform="translate(12.315 12.315)" width="45.37" height="45.37" fill="#fff"/>
  </clipPath>
 </defs>
</svg>
