<?xml version="1.0" encoding="UTF-8"?>
<svg width="70" height="70" version="1.1" viewBox="0 0 70 70" xmlns="http://www.w3.org/2000/svg">
 <defs>
  <style>.cls-1{fill:#fc6204;}</style>
 </defs>
 <g transform="matrix(.56176 0 0 .5447 13.017 0)" data-name="Layer 2">
  <g data-name="Layer 1">
   <path class="cls-1" d="m31 128.51c-0.1-8.82-0.1-17.63-0.35-26.44a11.89 11.89 0 0 1 4-9.67c5.97-5.61 11.68-11.4 17.35-17.29 2.27-2.36 4.88-4.87 3.22-8.7s-5.16-4.83-9-4.83h-9.48c-1.28 0-2.83 0.48-3.57-1-0.83-1.71 0.47-2.81 1.53-3.84q12-11.67 24-23.3c1.67-1.62 3.34-3.24 5.1-4.76 4.53-3.93 10.06-2.83 12.83 2.49 1.51 2.91 1.65 6.05 1.64 9.22 0 9.65-0.42 19.31 0 28.94 0.41 10.85-4.2 19.18-11.64 26.44q-16.9 16.31-33.63 32.74z"/>
   <path class="cls-1" d="m45.53 0c2 5.64 0.89 29.24-1.38 33.93a27.69 27.69 0 0 1-8.46 10c-4.19 3.18-7.45 7.56-11.15 11.38-2.25 2.32-3.47 5-2.17 8.12a7.74 7.74 0 0 0 7.09 4.73c3.81 0.24 7.65 0.07 11.47 0.16 1.06 0 2.46-0.48 3 1a2.56 2.56 0 0 1-0.93 2.68c-9.88 9.87-19.64 19.85-29.7 29.53-3.74 3.52-10.13 1.41-12.3-3.61a17.07 17.07 0 0 1-1-6.84c0.05-10.64 0.1-21.28 0-31.92a31.55 31.55 0 0 1 9.53-23.3q17.28-17.58 34.47-35.22c0.34 0 1.2-0.64 1.53-0.64z"/>
  </g>
 </g>
</svg>
