<?xml version="1.0" encoding="UTF-8"?>
<svg width="70" height="70" fill="none" version="1.1" viewBox="0 0 70 70" xmlns="http://www.w3.org/2000/svg">
 <path d="m32.604 36.288 3.0361 0.80407v5.4677l-3.9949-0.16072z" fill="#54b9b4" stroke-width="1.5229"/>
 <path d="m29.567 40.308 3.0361-4.0205-0.9588 6.1111z" fill="#4daaa6" stroke-width="1.5229"/>
 <path d="m29.567 40.308 3.0361-4.0205-3.0361 2.0906z" fill="#4aa683" stroke-width="1.5229"/>
 <path d="m29.567 33.874 3.0361 2.4122-3.0361 2.0906h-0.31955l-0.9588-1.2865-0.63925-0.64319-1.2784-0.32175-1.9175-0.3216-1.5979-0.3216-3.5155-0.3216-4.1547-0.32175-1.5979-0.3216-5.7526-4.1812-0.3196-0.64335 0.63918-0.3216 4.3145 3.2164h1.4382l-0.3196-0.96494-5.433-6.1111-0.15979-0.64334-1.7578-3.6987-2.2371-4.3421h0.95877l3.5155 6.7543-0.3196-1.6081-0.31958-1.9299-0.3196-1.9297-0.3196-2.2515v-3.2164l0.63919-5.1462h0.63918v4.1813l-0.3196 2.2515 0.3196 1.4474 0.31958 1.4474 0.3196 1.4473 0.3196 1.4474 0.31958 1.4474 0.3196 1.769 0.3196 0.64319 2.5567 3.8596h0.63918v-3.538l-1.5979-2.8947-0.3196-2.8947v-3.538h0.3196l0.31958 1.2865v2.8947l0.3196 0.64334 1.5979 3.538 0.63918 0.64319 0.63919-0.48247v-4.6637h0.63918v10.614l6.0722 3.538h2.5567v-0.64335l-2.8763-3.2164v-2.4122l0.6391 0.80407 3.9949 5.4679 0.15985 0.48232z" fill="#66dc9b" stroke-width="1.5229"/>
 <path d="m29.249 43.845 0.31955-3.538 2.0775 2.0908z" fill="#52b3b2" stroke-width="1.5229"/>
 <path d="m26.053 38.86 3.5155 1.4473-0.31955 3.538z" fill="#44979c" stroke-width="1.5229"/>
 <path d="m25.894 43.845h3.3557l-3.1958-4.9853-1.1187-0.48247-0.79895-0.3216-1.2784-0.32175-1.4382-0.3216-0.4794 0.64335-0.31955 0.96479-0.31955 0.96494v0.64335l2.5567 2.5731 1.2784 0.3216z" fill="#50ab89" stroke-width="1.5229"/>
 <path d="m19.023 36.769 2.3969 0.64334-0.95865 2.2513-0.15985 0.96494z" fill="#235779" stroke-width="1.5229"/>
 <path d="m29.249 43.846 2.397-1.4473-0.7991 2.7338z" fill="#5ac48b" stroke-width="1.5229"/>
 <path d="m35.64 42.559-3.9949-0.16072 1.4382 4.9853v1.6083l-0.31955 0.96479v1.6083h2.8763z" fill="#5fd09c" stroke-width="1.5229"/>
 <path d="m30.845 45.132 0.79895-2.7338 1.4382 4.8246v1.769l-0.31955 2.2513-0.3197-2.5731-1.5979-1.9297z" fill="#66ddaf" stroke-width="1.5229"/>
 <path d="m28.609 45.132 2.2372 1.6083 1.5981 1.9297 0.31955 2.5731-2.0773 0.64335z" fill="#59c299" stroke-width="1.5229"/>
 <path d="m30.846 45.132h-2.2372l2.2372 1.6083z" fill="#040d04" stroke-width="1.5229"/>
 <path d="m29.248 43.844-0.63925 1.2865h2.2372z" fill="#1b453f" stroke-width="1.5229"/>
 <path d="m30.684 51.886 2.0773-0.64335v4.503l-0.31955 0.96494z" fill="#357894" stroke-width="1.5229"/>
 <path d="m32.763 51.564h2.8763v0.96494h-1.2784l-1.5979 1.1257z" fill="#65ddb7" stroke-width="1.5229"/>
 <path d="m34.361 52.529h1.2784v3.538h-1.2784l-1.5979-2.4122z" fill="#051512" stroke-width="1.5229"/>
 <path d="m32.765 55.746v-2.0908l1.5979 2.4124h1.2784v0.96494h-2.237l-0.9588-0.32175z" fill="#5ac482" stroke-width="1.5229"/>
 <path d="m35.638 62.5v-5.4677h-2.2372l-0.9588-0.32175-1.7578-4.8246v7.076l2.0773 3.2164 1.5981 0.3216z" fill="#419177" stroke-width="1.5229"/>
 <path d="m28.609 45.132 2.0775 6.7544v7.076l2.0773 3.2163h-1.7578l-3.3557-1.1257-0.63925-3.6989v-4.0203z" fill="url(#a)" stroke-width="1.5229"/>
 <path d="m37.396 36.288-3.0361 0.80407v5.4677l3.9949-0.16072z" fill="#54b9b4" stroke-width="1.5229"/>
 <path d="m40.433 40.308-3.0361-4.0205 0.9588 6.1111z" fill="#4daaa6" stroke-width="1.5229"/>
 <path d="m40.433 40.308-3.0361-4.0205 3.0361 2.0906z" fill="#4aa683" stroke-width="1.5229"/>
 <path d="m40.433 33.874-3.0361 2.4122 3.0361 2.0906h0.31955l0.9588-1.2865 0.63925-0.64319 1.2784-0.32175 1.9175-0.3216 1.5979-0.3216 3.5155-0.3216 4.1548-0.32175 1.5979-0.3216 5.7527-4.1812 0.31955-0.64335-0.6391-0.3216-4.3146 3.2164h-1.4381l0.31955-0.96494 5.4331-6.1111 0.1597-0.64334 1.7578-3.6987 2.2372-4.3421h-0.9588l-3.5155 6.7543 0.3197-1.6081 0.31955-1.9299 0.31955-1.9297 0.31955-2.2515v-3.2164l-0.6391-5.1462h-0.63925v4.1813l0.3197 2.2515-0.3197 1.4474-0.31955 1.4474-0.31955 1.4473-0.3197 1.4474-0.31955 1.4474-0.31955 1.769-0.31955 0.64319-2.5567 3.8596h-0.63925v-3.538l1.5979-2.8947 0.3197-2.8947v-3.538h-0.3197l-0.31955 1.2865v2.8947l-0.31955 0.64334-1.5979 3.538-0.63925 0.64319-0.63925-0.48247v-4.6637h-0.6391v10.614l-6.0722 3.538h-2.5567v-0.64335l2.8763-3.2164v-2.4122l-0.6391 0.80407-3.9949 5.4679-0.15985 0.48232z" fill="#66dc9b" stroke-width="1.5229"/>
 <path d="m40.751 43.845-0.31955-3.538-2.0775 2.0908z" fill="#52b3b2" stroke-width="1.5229"/>
 <path d="m43.947 38.86-3.5155 1.4473 0.31955 3.538z" fill="#44979c" stroke-width="1.5229"/>
 <path d="m44.106 43.845h-3.3557l3.1958-4.9853 1.1187-0.48247 0.79895-0.3216 1.2784-0.32175 1.4382-0.3216 0.4794 0.64335 0.31955 0.96479 0.31955 0.96494v0.64335l-2.5567 2.5731-1.2784 0.3216z" fill="#50ab89" stroke-width="1.5229"/>
 <path d="m50.977 36.769-2.3969 0.64334 0.95865 2.2513 0.15985 0.96494z" fill="#235779" stroke-width="1.5229"/>
 <path d="m40.751 43.846-2.397-1.4473 0.7991 2.7338z" fill="#5ac48b" stroke-width="1.5229"/>
 <path d="m34.36 42.559 3.9949-0.16072-1.4382 4.9853v1.6083l0.31955 0.96479v1.6083h-2.8763z" fill="#5fd09c" stroke-width="1.5229"/>
 <path d="m39.155 45.132-0.79895-2.7338-1.4382 4.8246v1.769l0.31955 2.2513 0.3197-2.5731 1.5979-1.9297z" fill="#66ddaf" stroke-width="1.5229"/>
 <path d="m41.391 45.132-2.2372 1.6083-1.5981 1.9297-0.31955 2.5731 2.0773 0.64335z" fill="#59c299" stroke-width="1.5229"/>
 <path d="m39.154 45.132h2.2372l-2.2372 1.6083z" fill="#040d04" stroke-width="1.5229"/>
 <path d="m40.752 43.844 0.63925 1.2865h-2.2372z" fill="#1b453f" stroke-width="1.5229"/>
 <path d="m39.316 51.886-2.0773-0.64335v4.503l0.31955 0.96494z" fill="#357894" stroke-width="1.5229"/>
 <path d="m37.237 51.564h-2.8763v0.96494h1.2784l1.5979 1.1257z" fill="#65ddb7" stroke-width="1.5229"/>
 <path d="m35.639 52.529h-1.2784v3.538h1.2784l1.5979-2.4122z" fill="#051512" stroke-width="1.5229"/>
 <path d="m37.235 55.746v-2.0908l-1.5979 2.4124h-1.2784v0.96494h2.237l0.9588-0.32175z" fill="#5ac482" stroke-width="1.5229"/>
 <path d="m34.362 62.5v-5.4677h2.2372l0.9588-0.32175 1.7578-4.8246v7.076l-2.0773 3.2164-1.5981 0.3216z" fill="#419177" stroke-width="1.5229"/>
 <path d="m41.391 45.132-2.0775 6.7544v7.076l-2.0773 3.2163h1.7578l1.4382-0.48247 1.9175-0.64319 0.63925-3.6989v-4.0203z" fill="#66ddaf" stroke-width="1.5229"/>
 <defs>
  <linearGradient id="a" x1="17.895" x2="19.053" y1="29.895" y2="39.79" gradientTransform="matrix(1.5181 0 0 1.5278 .96389 1.3889)" gradientUnits="userSpaceOnUse">
   <stop stop-color="#204D50" offset="0"/>
   <stop stop-color="#52D8A8" offset="1"/>
  </linearGradient>
 </defs>
</svg>
