<?xml version="1.0" encoding="UTF-8"?>
<svg width="70" height="70" version="1.1" viewBox="0 0 70 70" xmlns="http://www.w3.org/2000/svg">
 <path d="m15.426 5.9174h6.096l31.282 31v-17.737h4.4918v27.644z" fill="#349ea3" stroke-width="1.4605"/>
 <path d="m59.064 66h-6.0961l-31.282-31v17.737h-4.4918v-27.644z" fill="#349ea3" stroke-width="1.4605"/>
 <path d="m11.579 12.948 2.4063-2.3969 51.014 51.933z" fill="#349ea3" stroke-width="1.4605"/>
 <path d="m59.864 14.866c0 2.6476-2.1547 4.7938-4.8126 4.7938-2.6581 0-4.8127-2.1462-4.8127-4.7938 0-2.6476 2.1547-4.7938 4.8127-4.7938 2.6579 0 4.8126 2.1463 4.8126 4.7938zm-7.7762 0c0 1.6304 1.3268 2.9521 2.9636 2.9521s2.9636-1.3217 2.9636-2.9521-1.3268-2.952-2.9636-2.952-2.9636 1.3217-2.9636 2.952z" fill="#349ea3" stroke-width="1.4605"/>
 <path d="m24.252 56.412c0 2.6476-2.1547 4.7939-4.8127 4.7939-2.6579 0-4.8126-2.1462-4.8126-4.7939 0-2.6475 2.1547-4.7937 4.8126-4.7937 2.6581 0 4.8127 2.1462 4.8127 4.7937zm-7.7763 0c0 1.6304 1.3268 2.952 2.9636 2.952s2.9637-1.3216 2.9637-2.952-1.327-2.952-2.9637-2.952-2.9636 1.3216-2.9636 2.952z" fill="#349ea3" stroke-width="1.4605"/>
 <path d="m14.625 8.7938c0 2.6476-2.1547 4.7938-4.8127 4.7938-2.6579 0-4.8127-2.1463-4.8127-4.7938 0-2.6476 2.1547-4.7938 4.8127-4.7938 2.658 0 4.8127 2.1463 4.8127 4.7938zm-7.7763 0c0 1.6304 1.3269 2.952 2.9636 2.952 1.6368 0 2.9636-1.3217 2.9636-2.952 0-1.6304-1.3269-2.952-2.9636-2.952-1.6368 0-2.9636 1.3217-2.9636 2.952z" fill="#349ea3" stroke-width="1.4605"/>
</svg>
