<?xml version="1.0" encoding="UTF-8"?>
<svg width="70" height="70" version="1.1" viewBox="0 0 70 70" xmlns="http://www.w3.org/2000/svg">
 <path d="m64.972 42.229c0.15141-0.63794-0.33914-1.2374-0.99119-1.2374h-8.8234c-0.4458 0-0.83918 0.28813-0.99556 0.70812-2.9071 7.8041-10.39 13.359-19.162 13.359s-16.255-5.5551-19.162-13.359c-0.15646-0.41999-0.54983-0.70812-0.99566-0.70812h-8.8234c-0.65192 0-1.1426 0.59944-0.9911 1.2374 3.2372 13.634 15.428 23.771 29.972 23.771 14.544 0 26.735-10.137 29.972-23.771zm-0.27586-15.533c0.17808 0.64613-0.31548 1.2709-0.982 1.2709h-8.5567c-0.4458 0-0.83918-0.28813-0.99556-0.70812-2.9071-7.8041-10.39-13.359-19.162-13.359s-16.255 5.555-19.162 13.359c-0.15644 0.41999-0.54982 0.70812-0.99565 0.70812h-8.5566c-0.66659 0-1.1602-0.62476-0.982-1.2709 3.6086-13.088 15.537-22.696 29.696-22.696s26.088 9.6072 29.697 22.696z" clip-rule="evenodd" fill="#b3e700" fill-rule="evenodd" stroke-width="1.5111"/>
 <rect x="29.101" y="27.966" width="12.947" height="13.025" rx="1.0358" fill="#b3e700" stroke-width="1.5111"/>
</svg>
