<?xml version="1.0" encoding="UTF-8"?>
<svg width="44" height="44" fill="none" version="1.1" viewBox="0 0 44 44" xmlns="http://www.w3.org/2000/svg">
 <g clip-path="url(#f)">
  <path d="m14.249 30.97c-0.0253 0.0035-0.049 0.0193-0.0697 0.052-0.0826 0.1316 0.1226 1.3686 0.7118 2.038 0.5892 0.6717 1.8924 0.436 2.7988 0.5781 0.9063 0.142 1.256 0.8259 1.8659 1.7057 0.9392 1.5265 2.2651 1.5635 2.2651 1.5635s1.3259-0.037 2.2651-1.5635c0.6099-0.8798 0.9599-1.5637 1.8661-1.7057 0.9063-0.1421 2.21 0.0936 2.7992-0.5781 0.5892-0.6694 0.7942-1.9064 0.7116-2.038-0.0825-0.1315-0.2128 0.0098-0.3106 0.1214-0.4226 0.4831-0.6369 0.8063-1.6021 1.0681-0.9651 0.2619-1.9205 0.0129-1.9205 0.0129-0.4171 0.3684-0.7587 0.6251-1.5494 0.6519l-2.2594 0.0072-2.2591-0.0072c-0.7909-0.0268-1.1322-0.2835-1.5493-0.6519 0 0-0.9554 0.249-1.9205-0.0129-0.965-0.2618-1.1794-0.585-1.6021-1.0681-0.0732-0.0837-0.1647-0.1839-0.2409-0.1734z" fill="url(#e)"/>
  <path d="m5.029 7.0301c-1.7713-0.24977-10.475 8.9476 6.9716 15.1 1.8034 0.6369 5.8679 1.746 7.2243 4.0761-0.953 0.2137-1.5764 0.3467-2.6576-0.0395-1.5773-0.5635-1.195-2.2346-1.1623-2.2472l-8.3374-3.1735s1.4368 1.6934 3.453 3.1735c2.0163 1.4803 5.6182 3.0015 7.0754 3.8607 1.4573 0.8569 1.865 2.2936 1.865 2.2936s-0.4378-0.0832-1.4064-0.11c-0.9687-0.0268-1.8763-0.6583-2.0878-1.2303-0.2114-0.5719-0.0772-1.3862-0.0852-1.4021l-2.0687-0.9237s2e-4 1.4369-0.4191 1.9089c-0.4193 0.4697-2.398-0.844-2.9133-1.1187-0.1538-0.0819-0.3087-0.0588-0.281 0.1263 0.0255 0.1676 0.9972 1.6017 1.877 2.3854 0.8775 0.7813 2.0074 0.5078 2.2746 0.4975 0.4351-0.0168 1.3508 0.0024 2.2484 0.5428 1.0355 0.6236 1.1702 0.9952 1.537 1.3337 0.2618 0.2414 0.6878 0.6287 1.4173 0.6287l2.2669 0.0194 2.2669-0.0194c0.7295 0 1.1559-0.3873 1.4176-0.6287 0.3666-0.3385 0.5016-0.7101 1.5371-1.3337 0.8975-0.5404 1.8132-0.5596 2.2484-0.5428 0.2672 0.0103 1.3971 0.2838 2.2745-0.4975 0.8798-0.7837 1.8512-2.2178 1.8765-2.3854 0.0279-0.1851-0.1266-0.2082-0.2805-0.1263-0.5152 0.2747-2.4939 1.5884-2.9132 1.1187-0.4193-0.472-0.4193-1.9089-0.4193-1.9089l-2.0686 0.9237c-0.0079 0.0159 0.1263 0.8302-0.0852 1.4021-0.2115 0.572-1.1196 1.2035-2.0881 1.2303-0.9686 0.0268-1.406 0.11-1.406 0.11s0.4076-1.4367 1.8648-2.2936c1.4574-0.8592 5.0591-2.3804 7.0755-3.8607 2.0163-1.4801 3.4527-3.1735 3.4527-3.1735l-8.3371 3.1735c0.0328 0.0126 0.4151 1.6837-1.1623 2.2472-1.0811 0.3862-1.7045 0.2532-2.6575 0.0395 1.3564-2.3301 5.4209-3.4392 7.2241-4.0761 18.009-6.3513 8.1543-15.947 6.823-15.046-0.3918 0.26585-0.1145 0.67109-0.1145 0.67109s1.3518 2.2547 0.3117 4.3122c-1.0402 2.0576-5.3221 3.2416-6.8251 3.0789-1.4962-0.1603-2.1305-0.6334-2.1351-0.6449-0.5269-0.669-1.1306-1.8809-2.134-1.1891-1.1801 0.8159-2.5251 0.5576-3.5539-0.5559-1.031-1.1159-2.1924-1.5498-2.1924-1.5498s-1.1614 0.4339-2.1926 1.5498c-1.0286 1.1135-2.3738 1.3718-3.5537 0.5559-1.0035-0.6918-1.6065 0.5201-2.1336 1.1891-0.0046 0.0115-0.6389 0.4844-2.1351 0.6449-1.503 0.1627-5.7849-1.0213-6.8252-3.0789-1.0401-2.0575 0.3117-4.312 0.3117-4.312s0.27694-0.40542-0.11481-0.67127c-0.04467-0.02921-0.09547-0.04774-0.14845-0.05417zm9.0612 9.9111s1.1802-0.0209 3.1965 0.5794c2.014 0.6007 4.5338 3.0059 4.5338 3.0059s2.5204-2.4052 4.5344-3.0057c2.0163-0.6003 3.1963-0.5796 3.1963-0.5796s-2.6809 0.5796-4.9102 1.9726c-2.2294 1.3931-2.8205 3.1094-2.8205 3.1094s-0.591-1.7163-2.8204-3.1094c-2.2294-1.393-4.9101-1.9726-4.9101-1.9726h2e-4z" fill="url(#d)"/>
  <path d="m4.7019 7.0676c-2.2754 0.6624-9.2407 9.2299 7.2989 15.063 1.8032 0.6369 5.8679 1.7461 7.2241 4.0761-0.9529 0.2139-1.5762 0.3466-2.6574-0.0396-1.5773-0.5635-1.195-2.2345-1.1625-2.2471l-8.3372-3.1736s1.4367 1.6935 3.4529 3.1736c2.0164 1.4803 5.6183 3.0014 7.0755 3.8607 1.4571 0.8569 1.865 2.2936 1.865 2.2936s-0.4378-0.0832-1.4066-0.11c-0.9685-0.0268-1.8761-0.6584-2.0876-1.2304-0.2116-0.572-0.0772-1.3863-0.0852-1.4024l-2.0687-0.9233s0 1.4367-0.4191 1.9088c-0.4195 0.4698-2.398-0.8439-2.9133-1.1186-0.1538-0.0819-0.3087-0.0588-0.281 0.1262 0.0253 0.1677 0.997 1.6018 1.877 2.3855 0.8775 0.7812 2.0072 0.5078 2.2744 0.4975 0.4352-0.017 1.3506 0.0022 2.248 0.5427 1.0357 0.6236 1.1708 0.9952 1.5376 1.3337 0.2616 0.2415 0.6878 0.6288 1.4173 0.6288l2.2503 0.0194h0.0166l2.2501-0.0194c0.7295 0 1.1556-0.3873 1.4172-0.6288 0.3668-0.3385 0.502-0.7101 1.5376-1.3337 0.8974-0.5405 1.8129-0.5597 2.2481-0.5427 0.2671 0.0103 1.3973 0.2837 2.2749-0.4975 0.8798-0.7837 1.8511-2.2178 1.8764-2.3855 0.028-0.185-0.127-0.2081-0.2808-0.1262-0.5152 0.2747-2.4939 1.5884-2.9132 1.1186-0.4193-0.4721-0.4193-1.9088-0.4193-1.9088l-2.0686 0.9233c-0.0081 0.0161 0.1263 0.8304-0.0852 1.4024s-1.1192 1.2036-2.0878 1.2304c-0.9685 0.0268-1.4065 0.11-1.4065 0.11s0.4082-1.4367 1.8654-2.2936c1.4573-0.8593 5.0587-2.3804 7.0751-3.8607 2.0162-1.4799 3.4529-3.1736 3.4529-3.1736l-8.3373 3.1736c0.0328 0.0126 0.4149 1.6836-1.1623 2.2471-1.0813 0.3862-1.7047 0.2535-2.6575 0.0396 1.3562-2.33 5.4208-3.4392 7.2241-4.0761 16.54-5.8331 9.5746-14.401 7.2992-15.063 0 0 2.3074 3.0018 1.9549 5.9395-0.3419 2.9376-6.1532 5.8969-11.024 7.0936-1.3737 0.3377-7.8139 3.112-8.0389 6.2437-0.225-3.1317-6.6703-5.906-8.0439-6.2439-4.871-1.1965-10.682-4.1558-11.024-7.0934-0.35256-2.9377 1.9548-5.9395 1.9548-5.9395z" fill="url(#c)"/>
  <path d="m19.561 32.876c-0.1179 1.9916 2.2601 3.1977 2.2601 3.1977s2.3784-1.2061 2.2603-3.1977l-2.2603 0.0072-2.2601-0.0072z" fill="url(#b)"/>
  <path d="m18.772 29.386c-0.1122-0.2692-0.7208-1.3328-2.1366-1.7472-0.1553-0.0455-0.406-0.0747-0.4684 0.2832-0.055 0.3146 0.0499 0.7265 0.2427 0.9761 0.3527 0.4563 0.7548 0.6619 1.2488 0.7561 0.211 0.0402 0.5199 0.1052 0.7813 0.0871 0.0999-0.0055 0.1975-0.032 0.2864-0.078 0.1192-0.0606 0.0998-0.1479 0.0458-0.2773zm-0.2864-3.6263c-0.3758-0.4309-0.8994-1.1453-2.2763-1.662-0.1516-0.0571-0.406-0.0747-0.4685 0.2832-0.0549 0.3147 0.0499 0.7266 0.2429 0.9761 0.3526 0.4563 0.754 0.6663 1.2487 0.7562 0.2218 0.0401 0.3993 0.0874 0.7813 0.087 0.1066-1e-4 0.215-0.0192 0.3139-0.0369 0.3784-0.0679 0.2854-0.2576 0.158-0.4036zm6.3847 3.6263c0.1122-0.2692 0.7208-1.3328 2.1366-1.7472 0.1554-0.0455 0.4059-0.0747 0.4684 0.2832 0.0549 0.3146-0.0497 0.7265-0.2427 0.9761-0.3526 0.4563-0.7549 0.6619-1.2487 0.7561-0.2111 0.0402-0.52 0.1052-0.7812 0.0871-0.1-0.0054-0.1977-0.032-0.2866-0.078-0.1192-0.0606-0.0996-0.1479-0.0458-0.2773zm0.2861-3.6263c0.3761-0.4309 0.8996-1.1453 2.2764-1.662 0.1518-0.0571 0.4062-0.0747 0.4687 0.2832 0.0549 0.3147-0.05 0.7266-0.243 0.9761-0.3525 0.4563-0.7539 0.6663-1.2486 0.7562-0.2219 0.0401-0.3995 0.0874-0.7813 0.087-0.1067-1e-4 -0.215-0.0192-0.3141-0.0369-0.3782-0.0679-0.2852-0.2576-0.1581-0.4036z" clip-rule="evenodd" fill="#6E93E5" fill-rule="evenodd"/>
  <path d="m4.6641 11.154s-0.16713 4.6122 6.6539 5.1669c0.836 0.0711 1.7438-0.0261 2.5458-0.8547 1.2103-1.2509 1.0972-1.5718 1.906-1.2603 0.8111 0.3117 1.8744 0.694 3.1003-0.3943 1.2256-1.086 1.8898-1.337 2.9506-1.337s1.7255 0.251 2.9512 1.3371c1.2259 1.0882 2.2891 0.7059 3.1003 0.3942 0.8087-0.3115 0.6957 0.0094 1.9061 1.2603 0.8019 0.8286 1.7095 0.9258 2.5457 0.8547 6.8209-0.5547 6.6536-5.1669 6.6536-5.1669-0.0636 0.3175-0.1699 0.625-0.316 0.914-1.0401 2.0575-5.3179 2.6698-6.8211 2.5091-1.496-0.1599-1.481-0.726-1.9567-1.5215-0.4973-0.8316-1.3128-0.7837-2.3164-0.0917-1.1799 0.8157-2.5297 0.4722-3.5585-0.6415-1.031-1.1157-2.1882-1.1159-2.1882-1.1159s-1.1567 2e-4 -2.1878 1.1161c-1.0286 1.1135-2.3784 1.4568-3.5584 0.6413-1.0037-0.692-1.8192-0.7399-2.3165 0.0917-0.4757 0.7955-0.4609 1.3616-1.9569 1.5215-1.5032 0.1609-5.7806-0.4516-6.8209-2.5091-0.14618-0.289-0.25252-0.5965-0.31614-0.914z" fill="url(#a)"/>
 </g>
 <defs>
  <linearGradient id="e" x1="13.901" x2="29.778" y1="34.023" y2="34.023" gradientUnits="userSpaceOnUse">
   <stop stop-color="#3B60B2" offset="0"/>
   <stop stop-color="#3B60B2" offset=".497"/>
   <stop stop-color="#4A78DF" offset=".499"/>
   <stop stop-color="#4A78DF" offset="1"/>
  </linearGradient>
  <linearGradient id="d" x1="38.645" x2="4.9687" y1="16.101" y2="16.101" gradientUnits="userSpaceOnUse">
   <stop stop-color="#253C70" offset="0"/>
   <stop stop-color="#34549C" offset=".499"/>
   <stop stop-color="#3B60B2" offset=".5"/>
   <stop stop-color="#2C4886" offset="1"/>
  </linearGradient>
  <linearGradient id="c" x1="35.367" x2="8.8707" y1="23.617" y2="23.617" gradientUnits="userSpaceOnUse">
   <stop stop-color="#34549C" offset="0"/>
   <stop stop-color="#4A78DF" offset=".512"/>
   <stop stop-color="#3B60B2" offset="1"/>
  </linearGradient>
  <linearGradient id="b" x1="19.214" x2="24.495" y1="33.754" y2="33.782" gradientUnits="userSpaceOnUse">
   <stop stop-color="#436CC9" offset="0"/>
   <stop stop-color="#4A78DF" offset=".494"/>
   <stop stop-color="#4A78DF" offset="1"/>
  </linearGradient>
  <linearGradient id="a" x1="5.7062" x2="37.799" y1="11.207" y2="11.207" gradientUnits="userSpaceOnUse">
   <stop stop-color="#1E3059" offset="0"/>
   <stop stop-color="#253C70" offset=".502"/>
   <stop stop-color="#162443" offset="1"/>
  </linearGradient>
  <clipPath id="f">
   <rect transform="translate(1.2941 7.0252)" width="41.227" height="29.95" fill="#fff"/>
  </clipPath>
 </defs>
</svg>
