<?xml version="1.0" encoding="UTF-8"?>
<svg width="72" height="72" fill="none" version="1.1" viewBox="0 0 72 72" xmlns="http://www.w3.org/2000/svg">
 <g transform="matrix(.92361 0 0 .92361 2.8501 7.311)" clip-path="url(#b)">
  <path d="m55.627 48.914-5.7061 3.9576-42.019-29.009c0-0.0567 0-0.1135-0.01672-0.1703v-2.5883-2.5148-2.635zm-11.726-37.438c-2.5371 1.7366-5.0977 3.4399-7.6348 5.1766-0.1262 0.1147-0.2907 0.1783-0.4614 0.1783-0.1706 0-0.3351-0.0636-0.4613-0.1783-3.1355-2.1809-6.2877-4.3417-9.4266-6.5058-3.3026-2.2911-6.6031-4.5888-9.9013-6.8932l-4.6832-3.2529h-11.332c0.6017 0.4208 1.0964 0.77482 1.5945 1.1188l8.8818 6.1518c2.9282 2.035 5.8554 4.07 8.7814 6.105 2.7545 1.9137 5.5022 3.8373 8.26 5.7477 2.6174 1.8134 5.2415 3.6069 7.8589 5.4237 0.1057 0.0957 0.2433 0.1488 0.3861 0.1488 0.1427 0 0.2803-0.0531 0.3861-0.1488 2.1126-1.4461 4.2486-2.8688 6.3512-4.3149 5.2326-3.5825 10.461-7.1704 15.684-10.764l11.419-7.7983c0.7889-0.53769 1.5745-1.0854 2.3968-1.6699h-11.365c-5.5802 3.8229-11.158 7.648-16.734 11.475zm-35.955 23.772c-0.0248 0.0481-0.04495 0.0984-0.06017 0.1503v4.7558 2.8421c0.00254 0.0577 0.01616 0.1144 0.04012 0.167l28.046 19.37h0.0267l5.7061-3.9542zm56.028-19.277-20.872 14.421c0.0659 0.0889 0.1398 0.1716 0.2206 0.2471 1.765 1.2491 3.5311 2.4926 5.2983 3.7305 0.0583 0.0313 0.1251 0.043 0.1906 0.0334l15.113-10.453c0.0227-0.0444 0.0395-0.0916 0.0501-0.1403zm0.0167 19.581c-2.37 1.6331-4.6565 3.2128-6.9697 4.8125l5.422 3.8407 1.5477-1.0721z" fill="url(#a)"/>
 </g>
 <defs>
  <linearGradient id="a" x1="9.1559" x2="62.742" y1="44.385" y2="-9.2498" gradientUnits="userSpaceOnUse">
   <stop stop-color="#1A44B7" offset="0"/>
   <stop stop-color="#4760FF" offset="1"/>
  </linearGradient>
  <clipPath id="b">
   <rect width="72" height="62.526" fill="#fff"/>
  </clipPath>
 </defs>
</svg>
